<svg xmlns="http://www.w3.org/2000/svg" width="766.487" height="840.557" viewBox="0 0 766.487 840.557">
  <g id="left" transform="translate(73.487 -42.38)">
    <path id="Path_101" data-name="Path 101" d="M44.721,703.9c10.62,21.632,59.063,28.052,80.368,31.816,62.98,11.1,140.28,14.755,198.69-16.735,73.6-39.694,117.647-117.516,133.816-197.623,5.266-26.115,5.288-59.825,22.241-81.521,16.322-20.914,45.287-30.228,63.459-49.466,18.628-19.717,16.1-42.763,27.225-66,18.563-38.824,54.819-71.01,78.344-107.244,26.659-41.174,50.75-99,41.762-149.964L73.861,0,0,678.025Z" transform="matrix(0.995, -0.105, 0.105, 0.995, -73.487, 114.77)" fill="#212529"/>
    <path id="Path_104" data-name="Path 104" d="M.114,1.59C11,26.573,14.347,53.82,15.566,80.718c1.262,27.4.37,54.863,2.655,82.2a294.691,294.691,0,0,0,6.638,42.436c2.851,12.165,6.9,23.938,10.6,35.777,3.09,9.945,5.789,20.043,8.183,30.206a269.458,269.458,0,0,1,5.745,30.794,105.065,105.065,0,0,1-1.2,29.314,215.444,215.444,0,0,1-8.7,34.82q-1.175,3.482-2.546,6.92l2.894.37C33.3,360.69,28.949,346.675,23.618,333.269c-2.7-6.768-5.941-13.188-9.184-19.717a82.851,82.851,0,0,1-8.7-24.918,112.794,112.794,0,0,1-.718-14.842q0-9.336.326-18.629c.239-5.615.566-11.251,1.349-16.8s2.394-10.881,3.634-16.191c3.787-16.474,6.855-33.209,11.8-49.4.5-1.632-2.416-3-2.916-1.393-4.352,14.494-7.356,29.4-10.663,44.177-1.415,6.289-3.2,12.535-4.352,18.868A115.544,115.544,0,0,0,2.53,249.9a273.069,273.069,0,0,0-.174,34.82A67.464,67.464,0,0,0,8.21,306.871c3.177,7.312,7.2,14.211,10.359,21.545,6.529,15.1,10.881,31.164,18.5,45.81.435.892,2.372,1.654,2.873.37a200.86,200.86,0,0,0,9.662-32.9,130.209,130.209,0,0,0,3.5-32.121,182.084,182.084,0,0,0-4.352-29.2q-3.395-15.952-7.965-31.686c-3.112-10.881-7.029-21.392-10.011-32.23a288.3,288.3,0,0,1-8.422-43.176c-3.221-27.616-2.459-55.45-3.33-83.175-.827-26.92-3.156-54.123-12.3-79.65C5.6,7.249,4.336,4.093,3.009.981,2.334-.564-.669-.238.136,1.634Z" transform="matrix(0.995, -0.105, 0.105, 0.995, 322.032, 138.757)" fill="#fff"/>
    <path id="Path_105" data-name="Path 105" d="M21.134,202.718a50.51,50.51,0,0,1-3.177-16.583c-.544-7.269-.609-14.559-.588-21.762,0-6.2.131-12.448,0-18.672a129.526,129.526,0,0,0-4.81-27.29A177.7,177.7,0,0,1,8.708,99.369c-.783-5.724-1.393-11.491-1.937-17.258C5.443,68.074,4.595,53.994,3.855,39.892,3.332,28.184,2.832,16.367,3.4,4.616c0-.958.109-1.937.2-2.894C3.724.089.612-.8.482.981a286.18,286.18,0,0,0,0,33.187c.566,14.276,1.458,28.574,2.7,42.806a257.114,257.114,0,0,0,4.5,34.167c2.176,10.054,5.462,19.956,6.333,30.271.5,6.028.283,12.143.261,18.172,0,7.312,0,14.624.326,21.915a79,79,0,0,0,2.481,18.629,23.8,23.8,0,0,0,1.219,3.351c.675,1.523,3.678,1.2,2.851-.653Z" transform="matrix(0.995, -0.105, 0.105, 0.995, 358.49, 306.765)" fill="#fff"/>
    <path id="Path_106" data-name="Path 106" d="M119.221.693c-8.03,12.274-14.233,25.592-21.262,38.454A235.625,235.625,0,0,1,80.723,66.132,252.052,252.052,0,0,1,58.961,91.964a165.045,165.045,0,0,1-26.4,22.546c-9.488,6.355-20.087,11.6-31.534,13.057l2.176,1.676a35.864,35.864,0,0,1,7.7-14.254,154.911,154.911,0,0,0,10.076-13.471c6.7-10.685,11.752-22.263,19.107-32.643A173.142,173.142,0,0,1,63.88,42.346a192.574,192.574,0,0,1,26.55-20.783c10.272-6.529,21.044-12.3,31.251-18.977,1.61-1.045-.588-3.286-1.959-2.372-9.227,6.028-18.955,11.316-28.291,17.127A196.605,196.605,0,0,0,64.511,37.6,179.037,179.037,0,0,0,39.723,63.956a144.521,144.521,0,0,0-9.967,15.081c-3.286,5.745-6.224,11.665-9.532,17.41a84.871,84.871,0,0,1-5.68,8.7c-1.872,2.459-3.874,4.831-5.811,7.269a40.065,40.065,0,0,0-8.7,16c-.261,1.2,1.306,1.806,2.176,1.7a72.468,72.468,0,0,0,28.813-10.99A153.294,153.294,0,0,0,57.786,97.644,243.737,243.737,0,0,0,98.046,45.61c8.248-14.385,14.994-29.6,24.091-43.525.914-1.415-1.98-2.851-2.916-1.415Z" transform="matrix(0.995, -0.105, 0.105, 0.995, 214.35, 172.924)" fill="#fff"/>
    <path id="Path_107" data-name="Path 107" d="M2.716,126.419q11.752-9.771,23.155-19.891C33.488,99.717,41.257,92.905,48.2,85.4,55.881,77.04,61.6,67.182,68.5,58.216S83.345,40.806,91.027,32.3A362.978,362.978,0,0,0,116.315,2.439c1.066-1.48-1.545-3.308-2.5-1.98C100.146,19.218,83.084,35.083,68.569,53.015c-7.138,8.7-12.861,18.607-20.13,27.268A221.4,221.4,0,0,1,26.5,101.915q-12.84,11.6-26.115,22.633c-1.371,1.132,1.24,3.025,2.5,1.98Z" transform="matrix(0.995, -0.105, 0.105, 0.995, 214.868, 176.278)" fill="#fff"/>
    <path id="Path_108" data-name="Path 108" d="M1.025,2.633c19.238,9.967,37.91,21.762,53.535,37,7.182,6.986,13.906,14.581,20.391,22.219A214.344,214.344,0,0,1,93.885,87.354a97.929,97.929,0,0,1,13.362,31.425l2.176-1.132c-9.706-3.83-17.41-11.447-24.678-18.585C81,95.449,77.28,91.771,73.232,88.507c-4.352-3.591-8.923-7.051-13.166-10.881A228.894,228.894,0,0,1,37.847,54.188c-6.529-7.747-12.84-15.669-18.694-23.939C12.864,21.349,6.6,11.8,3.136,1.371A1.893,1.893,0,0,0,1.351,0C.7,0-.215.544.046,1.327A109.332,109.332,0,0,0,13.8,27.312,313.087,313.087,0,0,0,32.972,52.687,263.894,263.894,0,0,0,54.734,76.364C62.852,84,71.97,90.444,80.022,98.126c8.487,8.161,16.975,17.279,28.291,21.762.849.326,2.372.131,2.176-1.153-4.222-20.609-16.888-38.8-30.032-54.776C73.929,55.994,66.986,48.29,59.8,40.913a179.217,179.217,0,0,0-25.4-21.371A278.883,278.883,0,0,0,2.287.261C.481-.7-.629,1.654,1.177,2.59Z" transform="matrix(0.995, -0.105, 0.105, 0.995, 354.071, 276.793)" fill="#fff"/>
    <path id="Path_109" data-name="Path 109" d="M106.9,113.806C95.478,98.2,81.833,84.47,68.362,70.695,54.13,56.136,40.506,41.055,26.687,26.1,18.788,17.551,10.823,9.042,2.749.686A1.893,1.893,0,0,0,.573.142a1.2,1.2,0,0,0-.239,1.85c14.428,14.864,28.291,30.184,42.393,45.4,6.812,7.4,13.645,14.755,20.652,21.936S76.936,83.143,83.465,90.085a271.565,271.565,0,0,1,21.022,25.027c1.066,1.415,3.7.392,2.459-1.306Z" transform="matrix(0.995, -0.105, 0.105, 0.995, 354.154, 276.795)" fill="#fff"/>
    <path id="Path_110" data-name="Path 110" d="M.365,2.027c10.881,14.559,26.115,24.874,39.5,37A195.108,195.108,0,0,0,60.821,55.932a124.172,124.172,0,0,0,11.6,6.92c3.961,2.176,8.052,3.939,12.1,5.876,8.835,4.2,18.3,9.205,28.291,8.7,1.219,0,1.567-1.066.958-2-4.918-7.7-13.406-11.969-19.042-19.042-2.96-3.721-5.245-7.9-7.878-11.839a98.344,98.344,0,0,0-8.857-10.968A100.433,100.433,0,0,0,56.229,15.019,95.124,95.124,0,0,0,31.441,4.878,142.193,142.193,0,0,0,1.366,0c-2.176-.109-1.241,2.633.5,2.72A138.148,138.148,0,0,1,27.981,6.684a102.043,102.043,0,0,1,24.374,9.075A89.05,89.05,0,0,1,74.248,33.582a109.244,109.244,0,0,1,8.7,10.511c2.72,3.721,4.918,7.769,7.573,11.534a58.912,58.912,0,0,0,10.6,10.881,47.877,47.877,0,0,1,10.141,10.424l.979-2c-8.7.348-17.018-3.765-24.722-7.421A193.074,193.074,0,0,1,64.346,55.258,167.569,167.569,0,0,1,43.737,39.088c-6.529-5.9-13.34-11.425-20.065-17.105A132.444,132.444,0,0,1,2.781.721C1.714-.693-.941.33.343,2.027Z" transform="matrix(0.995, -0.105, 0.105, 0.995, 342.775, 187.779)" fill="#fff"/>
    <path id="Path_111" data-name="Path 111" d="M111.662,74.388c-1.806.522-4.5-.849-6.4-1.806a74.842,74.842,0,0,1-9.184-5.658c-5.854-4.091-11.338-8.6-16.931-13.057C70.075,46.729,61,39.656,52.142,32.257,45.113,26.4,37.91,20.766,30.38,15.565A119,119,0,0,0,1.719.07,1.328,1.328,0,0,0,0,1.028,1.856,1.856,0,0,0,1.415,2.7,110.162,110.162,0,0,1,27.268,16.588c7.66,5.2,14.994,10.881,22.132,16.844,8.9,7.377,17.954,14.515,27.029,21.653,5.745,4.527,11.382,9.184,17.41,13.384A82.955,82.955,0,0,0,104.524,75c2.437,1.2,5.658,2.72,8.422,1.937,1.959-.566.348-3.112-1.262-2.655Z" transform="matrix(0.995, -0.105, 0.105, 0.995, 342.698, 187.72)" fill="#fff"/>
    <path id="Path_112" data-name="Path 112" d="M98.127.315c-19.26,15.234-32.643,36.1-48.378,54.6A271.073,271.073,0,0,0,27.53,83.948a173.163,173.163,0,0,0-9.162,15.974c-2.7,5.332-4.962,10.881-7.4,16.322C5.593,128.365-.826,141.313.088,154.958a1.828,1.828,0,0,0,2.524,1.2c10.1-6.833,15.56-18.171,24.635-26.115A186.258,186.258,0,0,1,43,118.811a131.742,131.742,0,0,0,14.6-12.1,136.21,136.21,0,0,0,24.787-30.25A127.5,127.5,0,0,0,95.319,42.817a190.986,190.986,0,0,0,5.615-41.065c0-1.632-3.068-2.524-3.112-.74A191.677,191.677,0,0,1,93.47,36.919,140.8,140.8,0,0,1,81.827,71,124.045,124.045,0,0,1,58.41,101.575a154.516,154.516,0,0,1-14.167,12.513c-4.962,3.852-10.424,7.007-15.473,10.772A76.842,76.842,0,0,0,14.56,139.4,65.4,65.4,0,0,1,.675,153.761l2.524,1.2c-.849-12.013,4.635-23.721,9.4-34.428,2.416-5.419,4.657-10.881,7.247-16.3a168.309,168.309,0,0,1,8.7-15.8,225.746,225.746,0,0,1,21.654-29.1c7.834-9.075,15.059-18.628,22.546-27.986a181.323,181.323,0,0,1,27.943-29.1c1.393-1.088-1.219-2.981-2.5-1.959Z" transform="matrix(0.995, -0.105, 0.105, 0.995, 250.519, 240.707)" fill="#fff"/>
    <path id="Path_113" data-name="Path 113" d="M3.389,154.862c-.914-2.873.849-6.529,2.046-9.162a101.621,101.621,0,0,1,7.421-13.057C18.1,124.568,24,116.973,29.765,109.27,39.275,96.517,48.7,83.7,58.556,71.229c7.551-9.532,14.8-19.325,21.5-29.466C88.2,29.424,95.944,16.3,100.362,2.112c.5-1.632-2.437-3-2.916-1.393a151.618,151.618,0,0,1-17.736,35.8C72.919,47.182,65.433,57.41,57.62,67.377c-4.352,5.571-8.7,11.1-13.057,16.735C39.471,90.859,34.509,97.67,29.482,104.46c-6.028,8.1-12.252,16.061-17.889,24.439a117.189,117.189,0,0,0-8.7,14.668c-1.5,3.156-3.721,7.682-2.568,11.273a1.915,1.915,0,0,0,1.806,1.371c.653,0,1.545-.544,1.284-1.327Z" transform="matrix(0.995, -0.105, 0.105, 0.995, 250.978, 240.428)" fill="#fff"/>
    <path id="Path_114" data-name="Path 114" d="M117.407.574h0c-.522.631-1.066,1.24-1.589,1.85A42.916,42.916,0,0,0,110.77,9.17c-2.067,3.569-4.352,7.747-6.529,11.991a134.056,134.056,0,0,0-7.9,22.48,103.589,103.589,0,0,0-4.178,24.113c-.131,3.808,0,7.66,0,11.382,0,4.9.131,9.945-.218,14.907v.239A154.317,154.317,0,0,1,55.6,106.818,152.881,152.881,0,0,1,.392,107.862c-.152,1.24-.283,2.459-.392,3.7A158.514,158.514,0,0,0,17.41,113.3a79.955,79.955,0,0,0,7.726,10.25,57.1,57.1,0,0,1,9.532,13.819c.914,2.176,1.828,4.352,2.72,6.376,3.743,8.7,7.617,17.845,12.274,26.441A168.723,168.723,0,0,0,67.4,197.109a159.759,159.759,0,0,0,24.265,22.807,106.461,106.461,0,0,1,13.993,13.449,36.691,36.691,0,0,0,12.709,10.62,1.785,1.785,0,0,0,1.654-.131,2.046,2.046,0,0,0,.936-1.589c1-21.566-12.4-42.175-22.567-55.82a212.338,212.338,0,0,0-20.914-23.938,277.917,277.917,0,0,0-24.722-20.848l-3.678-2.916a109.486,109.486,0,0,1-16.256-14.45c-1.088-1.24-2.176-2.546-3.156-3.852-1.632-2.024-3.286-4.113-5.136-6.028,25.832,2.894,49.487,14.711,72.381,26.115,4.113,2.046,8.226,4.091,12.317,6.093,10.228,4.962,19.347,8.923,27.834,12.078,6.942,6.768,14.3,13.318,21.414,19.586l.762.675c1.61,1.436,3.2,2.916,4.809,4.352a104.458,104.458,0,0,0,18.063,14.363c9.271,5.353,20,5.832,29.335,5.854h36.125a1.828,1.828,0,0,0,1.632-1.153,2.872,2.872,0,0,0,.174-.718A1.741,1.741,0,0,0,249,200.4c-10.881-12.6-21.066-23.438-35.8-28.552A144.5,144.5,0,0,0,184,166.25c-6.529-.827-13.057-1.7-19.39-3.112a232.484,232.484,0,0,1-49.074-17.41l-2.394-1.241a110.165,110.165,0,0,0,18.259-1.893,238.116,238.116,0,0,0,25.854-5.832,140.3,140.3,0,0,0,16.539-6.289c3.482-1.48,7.095-3.025,10.729-4.352l3.9-1.393c6.79-2.372,13.819-4.831,19.586-9.749a2,2,0,0,0,.588-1.872,1.61,1.61,0,0,0-1.153-1.2c-17.41-4.548-35.93-.239-51.838,4.135a156.057,156.057,0,0,0-50.38,24.439l-6.681-3.33c-8.444-4.222-17.17-8.574-25.941-12.47a179.585,179.585,0,0,0-34.646-11.817A159.5,159.5,0,0,0,96.189,96.154l.566-.3c9.924-5.092,19.586-11.12,29.009-16.953,4.135-2.568,8.4-5.2,12.622-7.747,21.762,8.966,41.979,11.512,59.8,7.573a62.784,62.784,0,0,0,25.962-12.579c2.046-1.632,4.048-3.373,5.985-5.071,6.137-5.332,12.47-10.881,20.413-13.362a2.176,2.176,0,0,0,1.349-2.176,1.415,1.415,0,0,0-1.436-1.262c-18.433-1.11-37.5-2.285-56.1.609A140.692,140.692,0,0,0,148.375,61.53c-8.139,4.352-16.126,9.423-23.939,14.211-6.115,3.808-12.448,7.726-18.8,11.382l-3.112,1.741c5.854-9.38,8.2-21.523,10.119-31.468a378.007,378.007,0,0,0,7.6-55.646A1.632,1.632,0,0,0,119.214.1,1.654,1.654,0,0,0,117.407.574ZM118.039,1.1Z" transform="matrix(0.995, -0.105, 0.105, 0.995, 10.36, 299.387)" fill="#fff"/>
    <path id="Path_117" data-name="Path 117" d="M81.737,169.332c1.567-21.284,4.026-42.806,10.62-63.219a1.959,1.959,0,0,1,.871-1.045c-4.352-3.286-4.352-11.73-2.786-16.256,2.176-6.05,7.617-15.429,14.864-15.8a147.785,147.785,0,0,0,3.83-19.695,1.959,1.959,0,0,1,.74-1.219l-2.046-1.893C92.792,36.387,76.471,24.091,61.281,10.424Q55.644,5.354,50.4,0c.348,8.7-4.048,16.822-9.771,23.939-3.591,4.527-7.617,8.7-11.36,13.057A101.412,101.412,0,0,0,14.622,59.933,168.332,168.332,0,0,0,1.195,106.722,100.5,100.5,0,0,0,2.914,146.2a80.978,80.978,0,0,0,8.4,20.544c1.915,3.33,3.852,6.529,5.506,10.054.544-10.707-.805-21.566.544-32.208,2.176-13.971,8.879-26.224,15.691-38.41,4.57-8.2,7.486-18.411,13.58-25.636,4.352-5.179,10.881-7.007,16.953-3.112,7.377,4.809,7.66,15.234,6.92,23.046-1.806,19.477-10.446,37.736-14.755,56.582-2.176,9.532-3.569,19.586-1.828,29.292,1.567,8.7,6.529,15.234,13.231,21A103.849,103.849,0,0,0,84.98,219.69C78.843,203.8,80.453,186.285,81.737,169.332Z" transform="matrix(0.995, -0.105, 0.105, 0.995, 142.879, 652.89)" fill="#6f8474"/>
    <path id="Path_119" data-name="Path 119" d="M77.67,137.168l.457-.109c9.445-1.371,13.95-8.161,18.89-15.495,5.375-7.965,10.032-16.3,14.755-24.657,8.7-15.234,17.823-30.075,32.186-40.652a102.783,102.783,0,0,1,41.631-18.389c15.473-2.851,31.359-1.023,46.854-3.569a108.18,108.18,0,0,0-64.83-12.383c-21.762,2.437-46.332,9.467-63.263,23.786A92.861,92.861,0,0,0,81.326,76.407,157.469,157.469,0,0,0,74.275,94.1c-1,2.938-1.915,5.876-2.786,8.836a25.7,25.7,0,0,1-2.176,7.051,6.768,6.768,0,0,1-7.639,2.677c-4.026-1.349-6.2-7.312-8.2-10.664C46.68,90.727,40.413,79.128,34.558,67.354c-6.072-12.1-11.817-24.374-17.41-36.669C12.513,20.631,6.942,10.6,3.634,0L0,2.938c14.233,37,30.946,73.382,54.123,105.612A272.986,272.986,0,0,0,77.67,137.168Z" transform="matrix(0.995, -0.105, 0.105, 0.995, 96.905, 510.302)" fill="#6f8474"/>
    <path id="Path_120" data-name="Path 120" d="M73.382,53.318A94.165,94.165,0,0,1,95.275,27.05C109.421,14.864,126.7,7.182,143.892,0c-13.057,1.088-26.245.174-39.172,2.611A95.971,95.971,0,0,0,57.888,26.55C44.025,39.607,36.125,57.779,26.419,73.883,19.934,84.916,13.079,97.974,0,101.26q10.011,10.294,20.957,19.695c6.529,5.615,14.167,10.664,20.7,16.169,7.53-8.7,21.762-13.3,29.64-17.41h0c-2.633-7.573,7.987-14.472,14.124-17.062,4.07-2.851,11.947-6.05,17.41-3.917,17.627-13.057,36.365-23.939,57.822-29.314,19.586-4.788,39.433-5.245,59.389-5.724a52.012,52.012,0,0,0-13.884-7.943C194.6,51.4,181.889,50.989,169.7,52.382c-22.067,2.524-45.048,9.858-65.287,18.868C97.408,74.34,74.71,90.1,68.769,78.627,64.96,71.446,69.987,59.694,73.382,53.318Z" transform="matrix(0.995, -0.105, 0.105, 0.995, 180.975, 540.482)" fill="#6f8474"/>
    <path id="Path_121" data-name="Path 121" d="M119.54,5.484C98.278,10.446,79.432,21.109,61.979,33.949a8.029,8.029,0,0,1,1.458,2.416C67.354,46.723,55.864,52.534,48.2,55.515c-4.352,1.741-16.3,5.615-20.739,1.023-9.445,4.527-20.391,7.7-27.29,16A.192.192,0,0,0,0,72.686c8.988,7.6,17.932,15.234,26.506,23.373l13.623,12.9a1.871,1.871,0,0,1,1.2,0c6.268,2.416,14.233-.239,20.261-2.372a176.493,176.493,0,0,0,20.326-9.575C97.147,89.4,112.533,82.675,129.29,79.323a193.359,193.359,0,0,1,50.053-3.112,201.275,201.275,0,0,1,23.939,2.176c6.529,1.219,13.057,2.7,19.586,2.176l-3.2-10.751c-.609-2-1.284-6.333-2.5-7.53-1.85-1.828-6.964-3.308-9.575-4.353a65.114,65.114,0,0,0-10.315-3,76.17,76.17,0,0,0-20-1.306c-14.058.87-27.7,4.853-40.957,9.336S110.2,72.621,96.712,76.668c-6.224,1.872-23.22,8.574-26.115-1.48C68.2,66.941,77.126,56.843,83.11,52.382c6.942-5.223,15.234-9.118,22.894-13.34,25.919-14.385,53.862-24.853,83.5-28.008A65.812,65.812,0,0,0,180.409,0a1.784,1.784,0,0,1-.588.131C159.779.718,139.322.87,119.54,5.484Z" transform="matrix(0.995, -0.105, 0.105, 0.995, 230.902, 602.654)" fill="#6f8474"/>
    <path id="Path_123" data-name="Path 123" d="M177.629.62a134.8,134.8,0,0,1-29.1,31.49c-11.295,9.271-23.416,17.41-35.364,25.875A266.584,266.584,0,0,0,77.783,87.06,201.582,201.582,0,0,0,61.157,106.21c-4.7,6.181-8.966,12.687-13.884,18.716a59.955,59.955,0,0,1-17.41,15.234,90.574,90.574,0,0,1-22.829,7.856c-1.98.479-3.961.914-5.963,1.349l2.176,2.024,12.339-22.85a130.576,130.576,0,0,1,11.6-19.891A42.437,42.437,0,0,1,45.183,96c6.725-2.72,13.667-5.027,20.5-7.508,7.726-2.786,15.451-5.571,23.307-8.009,1.937-.609.326-3.134-1.284-2.633-7.16,2.176-14.233,4.744-21.283,7.29s-14.058,4.962-21,7.617a47.659,47.659,0,0,0-19,11.839,93.578,93.578,0,0,0-12.143,19.107L.135,149.822c-.631,1.2,1.088,2.176,2.176,2.024a142.915,142.915,0,0,0,23.373-6.529A55.886,55.886,0,0,0,45.031,132.26a160.8,160.8,0,0,0,14.537-18.5A212.79,212.79,0,0,1,75.346,94.176a235.359,235.359,0,0,1,35.8-30.924c11.991-8.7,24.33-16.866,35.973-26.006A148.614,148.614,0,0,0,177.585,6.583c1.045-1.5,2.176-3,3.047-4.548s-2-2.851-2.916-1.415Z" transform="matrix(0.995, -0.105, 0.105, 0.995, 38.415, 127.9)" fill="#ffdbc2"/>
    <path id="Path_124" data-name="Path 124" d="M134.181,4.3C123.3,7.911,112.9,13,102.256,17.487a177.147,177.147,0,0,1-23.394,7.921C62.148,29.761,44.5,32.7,27.176,31.284a56.255,56.255,0,0,1-25-7.225l.7,2.176c6.529-5.2,15.625-5.2,23.177-7.813,9.184-3.177,17.78-7.726,27.138-10.468a131.727,131.727,0,0,1,28.791-4.9,150.793,150.793,0,0,1,26.115.435c8.966,1,17.889,2.633,26.876,3.482a1.2,1.2,0,0,0,1.284-1.349,1.872,1.872,0,0,0-1.784-1.371c-8.139-.783-16.191-2.176-24.308-3.177A153.467,153.467,0,0,0,84.019.208,140.367,140.367,0,0,0,54.858,4.56,115.341,115.341,0,0,0,40.756,9.3c-4.614,1.785-8.966,3.874-13.688,5.615a111.622,111.622,0,0,1-14.276,3.9A30.467,30.467,0,0,0,.365,24.255c-.871.7,0,1.785.7,2.176a56.212,56.212,0,0,0,22.35,7.16,117.343,117.343,0,0,0,26.506,0A189.919,189.919,0,0,0,98.535,22.144c12.448-4.766,24.265-11.055,37-15.234,1.937-.631.326-3.177-1.284-2.633Z" transform="matrix(0.995, -0.105, 0.105, 0.995, 56.008, 151.958)" fill="#ffdbc2"/>
    <path id="Path_125" data-name="Path 125" d="M1.773,22.922q11.817-.239,23.634-.892C33.2,21.616,41.076,21.2,48.8,20.071c8.7-1.284,17.149-4.527,25.767-6.659s17.41-3.438,26.115-4.831A287.072,287.072,0,0,0,130.41,2.7c1.98-.544.348-3.09-1.262-2.655C112,4.729,94.2,6.274,76.853,9.93c-8.509,1.85-16.67,5.005-25.179,6.768a161.693,161.693,0,0,1-23.808,2.437q-13.275.827-26.594,1.045C-.9,20.18.011,22.944,1.773,22.922Z" transform="matrix(0.995, -0.105, 0.105, 0.995, 56.486, 155.612)" fill="#ffdbc2"/>
    <path id="Path_126" data-name="Path 126" d="M22.575,1.492c1.937,14.777,2.546,30.032-.479,44.721A170.028,170.028,0,0,1,11.868,80.75,60,60,0,0,1,.987,97.79l2.807,1c-1.632-6.92-.174-14.1.936-20.979S5.905,63.384,6.907,56.2a163.089,163.089,0,0,1,4.2-19.086c1.61-5.854,3.373-11.665,5.484-17.41A68.856,68.856,0,0,1,25.165,2.427C26.253.969,23.62-.859,22.662.447a65.983,65.983,0,0,0-8.1,15.538C12.282,21.8,10.41,27.759,8.713,33.765A179.345,179.345,0,0,0,4.251,52.524C2.989,60.032,3.1,67.475,1.988,74.983.813,82.708-1.1,90.913.813,98.747c.261,1.088,1.915,1.937,2.807,1.023,8.553-9.053,13.275-21.131,16.713-32.9a151.008,151.008,0,0,0,6.833-39.651,171.922,171.922,0,0,0-1.61-25.7c-.218-1.61-3.33-1.937-3.068,0Z" transform="matrix(0.995, -0.105, 0.105, 0.995, 135.58, 175.477)" fill="#ffdbc2"/>
    <path id="Path_127" data-name="Path 127" d="M2.923,96.258A266.3,266.3,0,0,0,11.41,60.133c2.329-12.426,5.179-24.787,7.878-37.148C20.811,15.912,22.313,8.817,23.641,1.7c.3-1.61-2.764-2.5-3.112-.718-2.394,12.4-5.179,24.744-7.878,37S7.906,62.352,5.447,74.5A172.825,172.825,0,0,1,.072,94.843c-.566,1.632,2.372,3,2.916,1.415Z" transform="matrix(0.995, -0.105, 0.105, 0.995, 137.481, 175.439)" fill="#ffdbc2"/>
    <path id="Path_128" data-name="Path 128" d="M9.074.715C3.786,16.21,3.873,32.749,1.588,48.81A143.634,143.634,0,0,0,.043,73.619a186.313,186.313,0,0,0,2.742,23c1.153,7.312,2.568,15.059,7.073,21.153.544.74,2.176,1.11,2.677,0,3.243-7.66,2.024-16.256,4.722-24.069,1.284-3.721,3.09-7.247,4.527-10.881a90.6,90.6,0,0,0,3.395-11.251,86.242,86.242,0,0,0,2.633-23.938,81.608,81.608,0,0,0-4.679-22.459A120.1,120.1,0,0,0,11.947,1.063,1.937,1.937,0,0,0,9.9.062,1.153,1.153,0,0,0,9.1,1.716,120.2,120.2,0,0,1,19.107,22.5a88.9,88.9,0,0,1,5.419,22.089A78.1,78.1,0,0,1,22.7,68.047a97.634,97.634,0,0,1-3.047,11.121c-1.24,3.678-2.96,7.16-4.352,10.881a47.006,47.006,0,0,0-3.025,13.057,45.352,45.352,0,0,1-2.59,13.427H12.36c-3.9-5.266-5.158-12.056-6.18-18.367A198.392,198.392,0,0,1,3.285,76.121a134.534,134.534,0,0,1,1.2-24.4c1.023-7.813,1.785-15.647,2.59-23.5A116.3,116.3,0,0,1,12.056,2.108C12.6.5,9.684-.9,9.14.715Z" transform="matrix(0.995, -0.105, 0.105, 0.995, 184.446, 140.662)" fill="#ffdbc2"/>
    <path id="Path_129" data-name="Path 129" d="M5.3,115.609a2.806,2.806,0,0,1-.392-.522,5.4,5.4,0,0,1-.544-1.262,21.761,21.761,0,0,1-.762-3.721,67.811,67.811,0,0,1-.392-9.4c0-6.093.609-12.165,1.045-18.259.7-10.1,1.349-20.174,2.329-30.228.762-7.7,1.262-15.451,1.328-23.2A102.283,102.283,0,0,0,5.129,1.292c-.435-1.567-3.591-1.872-3.09,0a95.753,95.753,0,0,1,2.7,25.092c0,8.074-.479,16.126-1.24,24.156-.936,9.945-1.654,19.869-2.329,29.836C.733,86.9.124,93.216.037,99.657a71.817,71.817,0,0,0,.479,10.881,10.881,10.881,0,0,0,2.873,7.007c1.436,1.219,3.46-.522,1.85-1.872Z" transform="matrix(0.995, -0.105, 0.105, 0.995, 191.371, 140.076)" fill="#ffdbc2"/>
    <path id="Path_115" data-name="Path 115" d="M71.13,122.848c.566-12.165,3.243-23.764,5.876-35.6,2.938-13.34,5.484-28.008-.914-40.782a1.915,1.915,0,0,1-.131-.587C60.293,30.38,44.493,15.016,28.324,0a146.313,146.313,0,0,1-3.808,18.868c7.6,4.07,6.964,13.405,3.417,20.2C25.168,44.4,19.227,52.012,12.481,51.6a3.64,3.64,0,0,1-.849-.131,2.7,2.7,0,0,1,0,.392c-6.311,19.586-8.7,40.13-10.25,60.5-1.415,18.5-3.678,38.106,4.7,55.363v.218A66.682,66.682,0,0,0,29.5,174.468c-2.764-24.221-13.536-46.985-14.341-71.533A67.811,67.811,0,0,1,21.686,71.99c3.134-6.877,7.138-16.256,14.885-19C45.277,49.9,51.5,58,53.981,65.243a72.99,72.99,0,0,1,2.894,29.466c-2.024,24.635-11.643,49.575.566,73.165,7.551,14.646,21.653,18.041,36.582,17.41C74.481,171.356,70.042,145.568,71.13,122.848Z" transform="matrix(0.995, -0.105, 0.105, 0.995, 232.66, 698.597)" fill="#6f8474"/>
    <path id="Path_116" data-name="Path 116" d="M104.008,87.941A514.274,514.274,0,0,1,45.25,37.322C32.758,24.9,20.332,12.426,7.841,0c5.027,19.934-4.9,41.784-7.029,61.609-2.633,24.417.152,55.472,23.351,69.531a1.436,1.436,0,0,1,.718.958,237.422,237.422,0,0,0,25.157-4.722c-3.482-7.617-10.054-13.754-15.712-19.695-6.115-6.42-12.557-13.057-16.583-21.044C11.671,74.6,13.39,54.34,27.8,48.6,40.179,43.633,52.5,56.147,59.2,65c11.665,15.429,12.361,36.713,28.443,49.183,18.759,14.537,41.958,8.879,63.85,6.529a104.72,104.72,0,0,1-20.456-13.3C122.18,100.672,112.952,94.492,104.008,87.941Z" transform="matrix(0.995, -0.105, 0.105, 0.995, 312.685, 743.119)" fill="#6f8474"/>
    <path id="Path_118" data-name="Path 118" d="M76.494,10.787c-8.008,1.262-15.952,1.98-23.83-.239C36.648,6.021,16.953-3.511,0,1.342A484.763,484.763,0,0,0,50.663,43.1c7.856,5.658,15.865,11.121,23.612,16.975,7.029,5.31,14.32,10.881,22.785,13.754-6.529-9.075-6.942-20.587-6.2-31.708.849-12.4,1.676-24.765,2.176-37.17C88.442,8.567,82.24,9.894,76.494,10.787Z" transform="matrix(0.995, -0.105, 0.105, 0.995, 377.52, 781.564)" fill="#6f8474"/>
    <path id="Path_122" data-name="Path 122" d="M135.144.592A185.349,185.349,0,0,0,77.822,4.944c-17.976,4.5-34.167,13.3-50.663,21.458C19.564,30.167,9.205,34.8,0,34.127Q16.213,49.6,32.186,65.269c15.886,15.691,31.251,31.86,47.333,47.355a1.237,1.237,0,0,1,.283-.174c14.864-5.267,31.316.87,45.7,5.005,8.7,2.5,16.213,5.462,25.484,4.657,7.247-.631,18.3-1,23.5-6.877a2.373,2.373,0,0,1,1.066-.653v-2.176c.544-14.45,0-29.423-7.377-42.306-7.791-13.71-21.24-20.174-36.561-21.479-14.32-1.219-28.661,1.132-42.893,2.307-8.7.74-24.831,4.353-31.207-3.939C50.032,37.2,62.044,26.532,69.356,21.462a64.916,64.916,0,0,1,36.387-10.707c14.515-.2,27.79,4.157,41.936,6.376,12.47,1.98,25.984,1.98,37.475,7.53-1.85-6.159-3.678-12.317-5.528-18.476-.152-.522-.3-1.045-.479-1.567a65.633,65.633,0,0,1-20.565-1.763A198.052,198.052,0,0,0,135.144.592Zm-10.62,73.143c6.942.3,11.578,4.94,14.276,10.881a1.763,1.763,0,0,1,0,1.48c1.371,12.1-13.536,15.038-22.959,14.755-7.247-.239-14.428-3.743-11.8-11.578a1.85,1.85,0,0,1,.261-1.393c4.287-7.116,11.077-14.559,20.217-14.145Z" transform="matrix(0.995, -0.105, 0.105, 0.995, 283.776, 676.831)" fill="#6f8474"/>
  </g>
</svg>
