<svg xmlns="http://www.w3.org/2000/svg" width="1030.81" height="822.648" viewBox="0 0 1030.81 822.648">
  <g id="right" transform="translate(-1393.586 -632.29)">
    <path id="Path_2" data-name="Path 2" d="M459,660.136c.536-61.217,54.823-132.87,105.913-161.581,22.482-12.644,45.005-17.9,69.632-23.8,43.644-10.457,71.2-33.682,97.93-68.477,18.563-24.3,31.763-48.285,61.671-60.433,16.5-6.724,36.363-9.488,53.462-14.706,48.656-14.85,94.032-37.869,145.6-38.137V660.136Z" transform="translate(1365.582 688.338)" fill="#212529"/>
    <path id="Path_4" data-name="Path 4" d="M540.987,431.186a19.429,19.429,0,0,1-6.93-4.125,9.468,9.468,0,0,1-3.321-5.445,4.125,4.125,0,0,1,.681-2.64,8.025,8.025,0,0,1,2.929-2.331,5.239,5.239,0,0,1,4.352-.66c.6.144,1.3.351,1.692.495a37.851,37.851,0,0,1,7.714,4.125c1.237.846,2.454,1.712,3.63,2.64l1.382,1.155.7.619.268.268h0a14.768,14.768,0,0,1,4.311,6.621,2.516,2.516,0,0,1-.351,1.836s-.186.248,0,0l-.165.206-.392.392h0l-.247.165-.681.351h0l-.474.144-.763.206a6.184,6.184,0,0,1-1.506.165,14.935,14.935,0,0,1-3.857-.309,22.686,22.686,0,0,1-8.6-3.609,2.228,2.228,0,0,0-2.805,0,1.671,1.671,0,0,0,.454,2.434,28.874,28.874,0,0,0,9.674,4.352,18.563,18.563,0,0,0,8.828.206,6.187,6.187,0,0,0,4.806-4.455c.557-2.97-1.444-6.023-3.218-8.25a35.224,35.224,0,0,0-7.033-6.415,47.192,47.192,0,0,0-9.24-5.424,13.221,13.221,0,0,0-8.745-1.341c-3.176,1.011-6.518,3.218-7.281,6.662s1.2,6.5,3.341,8.787a23.8,23.8,0,0,0,9.344,6.188c.866.309,2.063.392,2.558-.619a1.9,1.9,0,0,0-1.052-2.393Z" transform="translate(1437.442 815.129)" fill="#78a37f"/>
    <path id="Path_5" data-name="Path 5" d="M564.079,362.925l.206.247,1.2-2.6a29.121,29.121,0,0,1-10-.681,13.222,13.222,0,0,1-5.92-3.156c.268.247-.247-.268-.31-.33l-.495-.557c-.144-.186-.289-.392-.454-.577l-.206-.309c.144.227,0,0,0-.1s-.433-.784-.619-1.176-.206-.433-.289-.639l-.124-.33c-.206-.516,0,.33,0-.206a13.99,13.99,0,0,1-.516-2.743,13.174,13.174,0,0,1,.1-2.454,9.282,9.282,0,0,1,.7-2.7,23.962,23.962,0,0,1,2.063-3.651h-3.4l.165.186a2.248,2.248,0,0,0,3.156.392,6.765,6.765,0,0,1,5.837-2.331c3.527.516,6.188,3.4,8.456,5.961a27.269,27.269,0,0,1,5.383,8.415c.145.412.248.887.351,1.32a5.266,5.266,0,0,1,.124,1.279,7.6,7.6,0,0,1-.144,1.2h0a.857.857,0,0,1,0,.206,4.757,4.757,0,0,1-.309.66.849.849,0,0,1-.1.186c0,.165.186-.227,0,0a3.828,3.828,0,0,1-.474.536s-.474.413-.186.186l-.557.371a6.477,6.477,0,0,1-2.537.866,1.444,1.444,0,0,0-.99,2.062,2.454,2.454,0,0,0,2.64,1.238,8.477,8.477,0,0,0,5.466-2.991,7.735,7.735,0,0,0,.908-6.786,28.878,28.878,0,0,0-5.817-9.9c-2.97-3.548-6.538-7.116-11.22-8.126a10.313,10.313,0,0,0-9.921,3.094l3.156.392-.165-.206a2.063,2.063,0,0,0-3.424,0,15.82,15.82,0,0,0-2.557,12.974A16.108,16.108,0,0,0,554.179,362.8a31.657,31.657,0,0,0,12.375,1.2,1.526,1.526,0,0,0,1.217-2.578l-.206-.227a2.331,2.331,0,0,0-2.805-.66,1.506,1.506,0,0,0-.681,2.392Z" transform="translate(1454.632 733.628)" fill="#78a37f"/>
    <path id="Path_6" data-name="Path 6" d="M572.431,419.595a4.991,4.991,0,0,1,1.114-4.826,8.856,8.856,0,0,0,.8-1.341c.227-.371-.144.186,0,0l.165-.206a7.155,7.155,0,0,1,.516-.6,10.973,10.973,0,0,1,4.455-2.516,23.121,23.121,0,0,1,12.582-.33l.722.206.33.1h0a12.4,12.4,0,0,1,1.3.557l.66.33c.309.165-.33-.247.124,0l.5.371c.1,0,.6.516.371.289s.186.206.247.268l.289.392c-.33-.454,0,0,0,.165s.268.763.144.268a.736.736,0,0,0,.1.454c.1.144,0,.165,0,.248h0a5.945,5.945,0,0,1-.124,1.217h0a1.615,1.615,0,0,1-.1.289,2.026,2.026,0,0,1-.289.7,9.3,9.3,0,0,1-.66,1.134,18.562,18.562,0,0,1-2.888,3.073,7.943,7.943,0,0,1-2.558,1.65,3.685,3.685,0,0,1-.536.206l-.887.289c-.66.186-1.341.371-2.063.516a26.131,26.131,0,0,1-9.364.351,15.044,15.044,0,0,1-2.166-.516c.268,0-.516-.227-.66-.268l-.557-.289a3.239,3.239,0,0,1-1.733-2.186c-.474-2.063-4.5-2.372-3.939,0,1.609,6.91,10.994,7.4,16.624,6.786a23.059,23.059,0,0,0,8.91-2.434,16.727,16.727,0,0,0,6.188-6.415,6.477,6.477,0,0,0,.1-6.085,10.046,10.046,0,0,0-5.094-4.125,26.813,26.813,0,0,0-15.572-1.031A16.15,16.15,0,0,0,572.1,409.8a18.838,18.838,0,0,0-2.062,2.7,7.361,7.361,0,0,0-1.65,2.991,9.38,9.38,0,0,0,0,4.125C568.883,421.637,572.905,422.008,572.431,419.595Z" transform="translate(1481.57 807.972)" fill="#78a37f"/>
    <g id="Group_3" data-name="Group 3">
      <path id="Path_3" data-name="Path 3" d="M769.073,569.16c-10.767,5.239-22.688,6.5-34.465,7.59-4.435.413-8.89.763-13.262,1.568a83.666,83.666,0,0,1-11.055,1.691c-2.949.144-6.662.1-8.786-2.31-2.681-3.032-2.063-7.693-.165-10.911,4.125-6.93,13.077-10.767,20.275-13.633,16.748-6.683,34.754-9.962,50.925-18.192A52.392,52.392,0,0,0,791.287,520.3c4.125-5.672,5.672-13.056,6.291-19.924a98.321,98.321,0,0,0-1.815-28.133,60.967,60.967,0,0,0-8.374-22.152,2.269,2.269,0,0,0-3.176-.371c-16.026,13.118-27.123,31.186-42.633,44.9A60.328,60.328,0,0,1,715.3,509.057a95.859,95.859,0,0,1-12.809,2.062c-3.692.33-8.766.743-11.839-1.836s-2.392-7.508-.825-10.849A38.074,38.074,0,0,1,699.42,486.8a103.641,103.641,0,0,1,24.957-15.407c18.728-8.869,40.076-17.965,47.439-39.189,3.939-11.323-.268-22.688-6.765-32.135-6.868-10-16.047-18.151-24.854-26.4-.619-.578-2.228-.825-2.784,0-3.816,5.342-5.486,11.819-6.93,18.13-1.671,7.3-2.888,14.747-5.218,21.884-2.063,6.538-5.383,13.18-11.179,17.243-5.218,3.671-13.964,6.188-20.028,3.176-4.93-2.372-6.188-8.395-6.188-13.407a51.833,51.833,0,0,1,4.125-19.12C694.82,394.5,699.482,389,703.669,382.7c5.548-8.25,9.942-17.676,10.065-27.865.33-26.36-22.131-41.849-36.054-61.279-.846-1.176-3.279-1.279-3.547.392-1.712,10.911-10.5,17.944-19.388,23.348-4.476,2.723-9.116,5.136-13.633,7.755-4.909,2.846-9.591,6.085-14.438,9.075-10.189,6.188-20.791,12.375-29,21.348s-13.716,20.337-13.118,32.506c.578,11.674,6.456,22.193,13.118,31.475,7.054,9.756,15.2,18.707,22.688,28.071,3.3,4.125,7.467,8.457,8.725,13.7,1.423,5.837-3.486,9.735-8.931,9.694-11.241,0-22.688-7.054-30.175-14.809-8.952-9.158-14.912-20.77-19.471-32.609a167.3,167.3,0,0,0-8.25-18.336A108.64,108.64,0,0,1,553.6,386.19a32.818,32.818,0,0,1-1.527-9.777c0-1.547-2.434-3.135-3.609-1.691l-26.813,33.145c-.516.639-1.093,1.258-1.568,1.939-.969,1.423-.413,3.341-.227,4.991a64.1,64.1,0,0,0,4.661,17.594,86.5,86.5,0,0,0,20.873,28.649,277.632,277.632,0,0,0,29.33,23.266c5.012,3.61,10.024,7.2,14.953,10.932a125.275,125.275,0,0,1,14.293,11.9c2.31,2.393,5.734,6.683,2.063,9.426-3.3,2.434-8.436,2.413-12.375,2.063-7.941-.681-15.2-5.136-22.234-8.6-10.313-5.115-20.832-9.962-30.382-16.5a214.781,214.781,0,0,1-34.4-28.876c-2.537-2.64-4.95-5.383-7.281-8.25-.763-.928-2.784-1.361-3.4,0a57.958,57.958,0,0,0-5.631,28.071,58.6,58.6,0,0,0,8.25,25.2c9.9,17.037,25.514,30.237,41.086,41.932a214.386,214.386,0,0,0,22.42,15.49c5.92,3.362,12.747,6.311,17.635,11.179,1.526,1.506,3.073,3.506,2.063,5.713-1.609,3.424-6.745,5.156-9.983,6.311-9.839,3.548-20.914,2.949-31.062,1.176-23.967-4.125-43.912-18.357-63.939-31.186-.825-.516-3.238-.908-3.156.784a100.941,100.941,0,0,0,17.676,52.265,141.183,141.183,0,0,0,40.983,38.508c18.563,11.86,40.261,14.293,61.691,10.54a156.776,156.776,0,0,0,16.5-3.94c2.516-.742,4.991-1.526,7.466-2.351a19.932,19.932,0,0,1,3.919-1.32c1.836-.186,2.248,1.382,1.877,2.867a48.861,48.861,0,0,1-3.506,7.982q-1.98,4.362-4.125,8.7c-2.557,5.28-5.239,10.5-7.982,15.675-6.435,12.107-13.324,23.967-20.316,35.765-3.424,5.775-6.889,11.55-10.313,17.326a113.578,113.578,0,0,1-10.313,15.82c-1.052,1.238.268,2.537,1.444,2.908,5.775,1.815,11.571,3.486,17.429,5.033a1.8,1.8,0,0,0,2.063-.8c3.878-6.188,7.466-12.561,11.117-18.914,3.238-5.61,6.868-10.993,10.086-16.624a327.975,327.975,0,0,0,19.532-41.251c4.682-11.654,8.5-23.678,13.427-35.208a18.566,18.566,0,0,1,3.651-6.188,12.518,12.518,0,0,1,1.526-1.238,3.733,3.733,0,0,1,1.505-.825c.186,0,0-.268.351.351,1.567,2.331,2.537,5.053,4.125,7.384a65.653,65.653,0,0,0,26.566,22.5,58.351,58.351,0,0,0,32.547,3.548,80.707,80.707,0,0,0,35.455-14.211,87.8,87.8,0,0,0,23.39-27.6A451.237,451.237,0,0,0,803.971,559.4c.887-3.114,1.712-6.188,2.475-9.385.392-1.712-2.063-2.393-3.259-1.959-12.561,4.847-22.152,15.119-34.074,21.162-2.186,1.114.66,3.96,2.516,3.011,11.942-6.043,21.513-16.294,34.074-21.141l-3.362-2a292.912,292.912,0,0,1-13.489,40.756c-5.26,13.118-11.055,26.05-17.346,38.694-5.548,11.138-12.375,21.822-21.657,30.2a74.6,74.6,0,0,1-34.63,16.686,55.482,55.482,0,0,1-33.537-2.269,52.386,52.386,0,0,1-14.087-9.013,57.753,57.753,0,0,1-12.6-14.809c-2.063-3.589-3.96-8.972-9.055-6.373a14.107,14.107,0,0,0-5.734,5.693,66.014,66.014,0,0,0-4.125,9.632c-2.331,6.188-4.6,12.54-6.992,18.769a402.712,402.712,0,0,1-18.316,41.953c-6.188,12-13.592,23.369-20.358,35.064-2.062,3.4-4.022,6.807-6.188,10.168l2.063-.8c-5.858-1.547-11.654-3.238-17.429-5.033l1.444,2.908a95.242,95.242,0,0,0,8.869-13.2L588.6,732.35c6.188-10.313,12.375-20.791,18.151-31.351s11.674-21.719,16.81-33c1.2-2.64,2.413-5.28,3.527-7.982a6,6,0,0,0-.206-6.085c-3.032-4.476-7.734-2.31-11.818-.969-21.059,6.951-44.386,11.055-65.858,3.465a98.445,98.445,0,0,1-27.288-16.067A137.02,137.02,0,0,1,501.29,620.6a99.19,99.19,0,0,1-23.72-58.8l-3.156.763c18.254,11.653,36.611,24.751,57.855,30.34a86.628,86.628,0,0,0,31.867,2.743,45.19,45.19,0,0,0,14.438-4.29c2.826-1.382,6.188-3.362,7.178-6.518,2.063-5.858-5.156-10.7-9.24-13.345-6.353-4.125-13.262-7.281-19.471-11.612-17.181-11.983-34.713-24.606-47.852-41.107a66.7,66.7,0,0,1-13.963-27.845,53.42,53.42,0,0,1,4.538-33h-3.4A185.2,185.2,0,0,0,522.432,483.5a192.854,192.854,0,0,0,25.617,18.151c7.673,4.455,15.861,8.25,23.823,12.045,5.548,2.723,11.241,6.064,17.264,7.467s15.3,2.063,20.461-2.372c6.414-5.528-2.063-13.407-6.188-17.057-14.892-13.035-31.949-23.266-47.15-35.889a108.961,108.961,0,0,1-22.214-23.761,64.479,64.479,0,0,1-10.313-30.938l-.351,1.238,24.957-30.938,3.568-4.414-3.609-1.671c-.124,14.211,8.952,26.442,14.727,38.8,2.846,6.085,4.806,12.54,7.611,18.563a102.022,102.022,0,0,0,9.756,16.913,59.814,59.814,0,0,0,28.567,22.09c5.074,1.753,11.055,3.341,16.4,1.939a10.6,10.6,0,0,0,8.106-10.828c-.433-5.486-4.331-10.313-7.632-14.438-3.713-4.641-7.425-9.261-11.262-13.8-8.25-9.735-16.934-19.594-22.152-31.351a39.065,39.065,0,0,1,1.629-36.095c6.394-11.262,17.181-18.914,27.927-25.658,9.983-6.188,19.924-12.561,30.2-18.336,9.1-5.115,19.037-11.076,23.74-20.853a27.585,27.585,0,0,0,2.31-7.652l-3.527.413c13.015,18.171,34.548,32.9,35.064,57.319.268,10.7-4.373,20.316-10.313,28.979-2.475,3.692-5.4,7.075-7.673,10.89a53.637,53.637,0,0,0-4.125,8.6c-3.754,9.962-7.8,27.185,2.64,34.713,5.816,4.125,14.129,3.445,20.626,1.114a28.072,28.072,0,0,0,15.222-14.438c3.816-7.652,5.425-16.253,7.178-24.565,1.547-7.322,2.888-15.572,7.322-21.822h-2.784c8.085,7.57,16.5,15.057,22.936,24.049s11.1,19.821,7.178,30.65c-8.044,22.193-31.083,30.134-50.368,39.684a90.342,90.342,0,0,0-24.214,16.5c-5.61,5.569-13.035,15.717-6.58,23.41,5.548,6.641,16.769,4.5,24.132,3.2a62.97,62.97,0,0,0,27.185-11.158c17.14-12.561,28.587-30.939,43.809-45.376,1.753-1.671,3.568-3.3,5.445-4.826l-3.156-.392c4.125,6,6.188,13.51,7.528,20.626a94.734,94.734,0,0,1,1.856,26.091c-.516,7.1-1.856,14.954-6.518,20.626a56.783,56.783,0,0,1-21.141,14.933c-16.727,7.549-35.064,10.622-51.75,18.336-6.992,3.238-15.717,8.085-18.047,16.005a11.715,11.715,0,0,0,10.5,15.139,42.8,42.8,0,0,0,12.375-.949c4.7-.866,9.3-1.568,14.067-2.063,13.1-1.217,26.38-2.372,38.364-8.25C773.775,571.12,770.929,568.253,769.073,569.16Z" transform="translate(1381.126 688.005)" fill="#78a37f"/>
      <path id="Path_7" data-name="Path 7" d="M624.475,296.921c2.62,7.858,1.96,16.727,1.568,24.751-.413,9.178-.392,18.336-.619,27.515a447.737,447.737,0,0,1-5.9,63.671c-3.486,20.914-7.92,41.664-11.654,62.516-3.836,21.327-7.26,42.7-10.622,64.084-3.094,19.636-4.435,39.4-6.662,59.134A274.166,274.166,0,0,1,576.4,661.4c-10.952,30.381-27.04,58.783-44.737,85.6-2.888,4.373-5.817,8.7-8.807,13.035-1.2,1.733,2.454,3.548,3.692,1.774,19.553-28.422,37.662-58.123,50.492-90.278a270.459,270.459,0,0,0,16.748-65.053c2.454-18.749,3.321-37.7,6.023-56.432,5.94-41.251,13.922-82.276,21.492-123.3a467.248,467.248,0,0,0,7.693-63.775c.454-10.313.392-20.791.66-31.207.227-8.25,1.011-16.5.495-24.751a43.091,43.091,0,0,0-2.063-10.973c-.66-2.062-4.414-1.609-3.609.825Z" transform="translate(1433.177 690.172)" fill="#78a37f"/>
    </g>
    <path id="Path_8" data-name="Path 8" d="M502.625,344.523c7.466,7.611,9.446,18.831,15.057,27.638,3.63,5.713,6.848,11.674,10.581,17.3,3.506,5.239,7.281,10.313,11.262,15.222a146.445,146.445,0,0,0,27.288,26.3,316.229,316.229,0,0,0,32.754,19.553,80,80,0,0,1,12.953,8.642c3.4,2.867,7.735,6.662,8.642,11.262.392,2.063,4.352,2.413,3.9,0-.887-4.455-4.125-8.106-7.384-11.138a66.714,66.714,0,0,0-11.014-8.5c-4.991-3.114-10.313-5.775-15.407-8.621-5.528-3.053-11.035-6.188-16.315-9.653a137.533,137.533,0,0,1-28.876-25.452c-4.125-4.826-8.127-9.9-11.819-15.119s-7.178-11.262-10.643-17c-1.712-2.805-3.506-5.507-4.971-8.436s-2.5-5.486-3.713-8.25a50.1,50.1,0,0,0-9.2-15.449,2.372,2.372,0,0,0-2.784-.681,1.506,1.506,0,0,0-.309,2.331Z" transform="translate(1411.493 740.356)" fill="#78a37f"/>
    <path id="Path_9" data-name="Path 9" d="M483.024,382.469c8.869,12.252,17.594,24.751,27.927,35.744a132.375,132.375,0,0,0,37.456,28.216,207.773,207.773,0,0,0,26.153,10.725,1.671,1.671,0,0,0,2.063-1.2c.165-1.093-.887-1.815-1.774-2.063-15.16-5.177-30.113-11.715-43.087-21.265A158.445,158.445,0,0,1,501.05,401.3c-5.156-6.683-10.065-13.572-15.016-20.419-1.32-1.815-4.661-.495-3.094,1.65Z" transform="translate(1390.586 780.808)" fill="#78a37f"/>
    <path id="Path_10" data-name="Path 10" d="M543.706,425.656c9.323,5.177,18.068,12.54,29.123,13.324a1.506,1.506,0,0,0,1.63-1.712,2.351,2.351,0,0,0-2.269-1.733,34.2,34.2,0,0,1-13.984-4.95c-4.435-2.5-8.622-5.4-13.077-7.879a1.9,1.9,0,0,0-2.558.6c-.474.969.351,1.918,1.134,2.351Z" transform="translate(1454.234 825.878)" fill="#78a37f"/>
    <path id="Path_11" data-name="Path 11" d="M562.44,423.057a127.621,127.621,0,0,1,17.862-7.673c2.454-.784.412-3.981-1.609-3.341a133.843,133.843,0,0,0-18.728,8,1.506,1.506,0,0,0-.31,2.331,2.351,2.351,0,0,0,2.784.681Z" transform="translate(1472.091 814.74)" fill="#78a37f"/>
    <path id="Path_12" data-name="Path 12" d="M586,441.435a215.415,215.415,0,0,0,42.427-18.563c6.6-3.609,13.1-7.4,19.553-11.262a148.95,148.95,0,0,0,16.872-11.241,57.587,57.587,0,0,0,14.851-17.1c1.031-1.877-2.64-3.671-3.692-1.774-6.518,11.777-17.635,19.367-28.876,26.153a420.332,420.332,0,0,1-39.189,21.389,166.2,166.2,0,0,1-23.451,9.013c-2.454.722-.413,3.919,1.609,3.341Z" transform="translate(1497.739 781.512)" fill="#78a37f"/>
    <path id="Path_13" data-name="Path 13" d="M660.452,343.274c1.279,18.563-11.55,33.929-25.493,44.49a122.909,122.909,0,0,1-22.688,13.469c-8.085,3.733-16.5,6.477-24.751,10.313-9.447,4.393-18.708,10.313-23.74,19.8-1.011,1.9,2.661,3.671,3.692,1.774,4.455-8.374,12.582-13.737,20.894-17.779s16.769-6.745,25-10.457c16.356-7.343,32.527-18.027,42.736-33a45.108,45.108,0,0,0,8.25-28.463c-.145-2.062-4.125-2.475-3.919,0Z" transform="translate(1476.732 740.099)" fill="#78a37f"/>
    <path id="Path_14" data-name="Path 14" d="M557.073,498.443c6.043-9.529,17.738-10,27.845-9.075,5.672.516,11.3,1.547,16.975,1.96a98.282,98.282,0,0,0,22.42-1.031,160.881,160.881,0,0,0,41.829-13.427,98.3,98.3,0,0,0,29.536-20.357A75.557,75.557,0,0,0,708.63,439.35c3.465-6.6,5.982-13.881,10.891-19.615,1.506-1.733-1.815-4.125-3.176-2.5-4.393,5.115-6.992,11.365-9.921,17.387a60.946,60.946,0,0,1-4.827,8.539,87.353,87.353,0,0,1-6.187,7.776,92.341,92.341,0,0,1-28.5,21.368A159.358,159.358,0,0,1,625.962,486.4a95.48,95.48,0,0,1-22.688,1.609c-5.9-.289-11.695-1.341-17.552-1.939a53.236,53.236,0,0,0-17.9.536,22.873,22.873,0,0,0-14.438,10.065c-1.134,1.794,2.537,3.589,3.692,1.774Z" transform="translate(1465.639 819.774)" fill="#78a37f"/>
    <path id="Path_15" data-name="Path 15" d="M475.445,425.966c8.539,8.25,14.562,18.563,21.884,27.783a91.68,91.68,0,0,0,27.659,23.121A84.2,84.2,0,0,0,559.577,487.8c13.943.99,27.865-.949,41.767-1.939a180.7,180.7,0,0,1,20.873-.5,24.463,24.463,0,0,1,7.508,1.32,17.345,17.345,0,0,1,6.745,4.93,2.372,2.372,0,0,0,2.784.681,1.505,1.505,0,0,0,.309-2.33,22.255,22.255,0,0,0-13.386-7.57,88.427,88.427,0,0,0-16.5-.454c-14.025.433-27.927,2.619-41.973,2.681a80.439,80.439,0,0,1-19.1-1.9,83.812,83.812,0,0,1-17.1-6.188,87.041,87.041,0,0,1-28.876-21.7c-8.642-10.189-15.222-21.946-24.9-31.248a2.063,2.063,0,0,0-2.764,0c-.784.8-.248,1.815.413,2.434Z" transform="translate(1382.138 826.538)" fill="#78a37f"/>
    <path id="Path_16" data-name="Path 16" d="M547.628,318.21a12.622,12.622,0,0,1,6.043,2.743,47.706,47.706,0,0,1,6.518,5.9c1.939,2.063,3.754,4.125,5.548,6.394a32.793,32.793,0,0,1,4.682,7.136,72.205,72.205,0,0,1,3.238,9.9c.887,3.073,2.063,6.188,3.011,9.137a168.7,168.7,0,0,0,6.188,16.851,38.571,38.571,0,0,0,12.19,15.882,2.186,2.186,0,0,0,2.764,0,1.671,1.671,0,0,0-.413-2.434,33.844,33.844,0,0,1-10.7-13.84,170.324,170.324,0,0,1-6.58-17.511c-1.031-3.032-2.062-6.043-2.949-9.117a65.007,65.007,0,0,0-3.424-10.127,37.683,37.683,0,0,0-5.115-7.714c-1.794-2.186-3.63-4.352-5.589-6.415-4.249-4.5-9.632-9.777-16.15-10.313a1.506,1.506,0,0,0-1.629,1.691,2.393,2.393,0,0,0,2.269,1.753Z" transform="translate(1457.222 711.371)" fill="#78a37f"/>
    <g id="Group_2" data-name="Group 2" transform="translate(135 -39.522)">
      <path id="Path_17" data-name="Path 17" d="M343.821,555.249c-6.23-1.162-11.8-4.243-17.162-7.5-2.284-1.351-4.514-2.865-6.892-4.054-1.824-.932-3.689-1.757-5.473-2.7a9.972,9.972,0,0,1-4.054-3.486,4.5,4.5,0,0,1,.878-5c2.7-3.081,8.014-2.486,11.662-1.851,11.027,1.946,21.122,7.392,32.095,9.662a33.554,33.554,0,0,0,15.581.135c3.932-1.095,7.216-3.932,9.892-6.878a55.625,55.625,0,0,0,8.189-12.027,44.2,44.2,0,0,0,4.405-12.257,19.928,19.928,0,0,0,.27-2.554,1.459,1.459,0,0,0-1.527-1.351c-13.351.622-26.013,6.311-39.446,6.3a32.975,32.975,0,0,1-9.595-1.351,42.076,42.076,0,0,1-7.689-3.446c-3.365-1.784-9.459-5.595-5.405-9.878a11.609,11.609,0,0,1,5.865-2.878,34.416,34.416,0,0,1,7.351-.811c6-.095,11.865,1.189,17.716,2.405,6.757,1.351,13.635,2.7,20.527,1.527,5.892-.987,12.162-3.541,15.622-8.662,2.8-4.122,3.554-9.3,3.527-14.189a88.455,88.455,0,0,0-1.77-15.541c-.2-1.162-.419-2.311-.635-3.473a1.554,1.554,0,0,0-1.824-1.095c-3.757,1.216-6.892,3.8-9.838,6.338a112.583,112.583,0,0,1-10.189,8.446c-3.284,2.2-7.122,4.054-11.189,3.554-3.608-.405-8.649-2.7-9.459-6.635-.743-3.622,1.986-7.122,4.338-9.527a32.432,32.432,0,0,1,10.135-7c1.973-.851,4.054-1.351,6.122-2.013a51.922,51.922,0,0,0,6.757-2.7,25.757,25.757,0,0,0,10.351-8.77,29.514,29.514,0,0,0,4.676-15.662c.189-6.338-.8-12.635-1.176-18.919-.081-1.473-.122-2.946-.095-4.432A1.473,1.473,0,0,0,394,395.871c-5.081,4.986-12.554,4.581-19.108,3.784-3.311-.405-6.622-.946-9.959-1.135-4.189-.243-8.351-.676-12.527-.987-8.108-.581-16.581-.351-23.892,3.7a23.392,23.392,0,0,0-11.23,14.149c-1.77,6.054-1.743,12.446-1.446,18.689.284,5.838.77,11.662.838,17.568,0,2.27,0,5.014-1.351,6.987a4.189,4.189,0,0,1-5.905.824,20.405,20.405,0,0,1-5.811-6.959,30.135,30.135,0,0,1-3.473-10.568c-1.189-8.351.689-16.568,2.973-24.554,1.973-6.892,1.851-14.324,4.5-21.041a17.918,17.918,0,0,1,2.365-4.324c.77-1-.554-2.176-1.595-1.905l-22.541,5.824a26.926,26.926,0,0,0-2.7.7c-.811.311-1.23,1.351-1.649,2.081-.527.932-1.027,1.878-1.487,2.838a36.878,36.878,0,0,0-2.216,6.054c-2.189,8.013-1.541,16.446.176,24.486,1.8,8.378,4.689,16.473,7.189,24.662,1.216,3.973,2.351,7.986,3.176,12.068a12.326,12.326,0,0,1,.27,4.392,2.838,2.838,0,0,1-.959,1.784,2.392,2.392,0,0,1-1.851.189,9.8,9.8,0,0,1-2.608-1.081,17.353,17.353,0,0,1-5.108-4.608,41.643,41.643,0,0,1-3.095-5.527c-.932-1.757-1.838-3.527-2.7-5.311-1.595-3.135-3.257-6.257-4.757-9.459a75.139,75.139,0,0,1-3.23-8.392,125.19,125.19,0,0,1-5.405-23.8c-.243-1.959-.419-3.932-.514-5.905a1.514,1.514,0,0,0-2.122-1.284,33.312,33.312,0,0,0-12.324,11.162,33.649,33.649,0,0,0-4.838,14.46c-1.27,11.392,1.554,22.973,4.811,33.784a116.793,116.793,0,0,0,4.77,14,56.6,56.6,0,0,1,4.135,10.405,5.176,5.176,0,0,1-.108,3.568,1.972,1.972,0,0,1-.919.743,5.314,5.314,0,0,1-2.311.189c-6.095-.514-11.5-4.311-15.851-8.324A56.014,56.014,0,0,1,222,474.519a163.373,163.373,0,0,1-7.811-18.324c-.689-1.824-1.351-3.649-2.081-5.405a1.351,1.351,0,0,0-2.405-.284,58.581,58.581,0,0,0-9.581,35.581,79.987,79.987,0,0,0,3.2,18.635,58.554,58.554,0,0,0,6.865,16.067c5.851,8.905,14.865,15.014,24.486,19.189,2.514,1.095,5.081,2.068,7.676,2.946l1.905.649a11.836,11.836,0,0,1,1.959.622c.8.432.568,1.541,0,2.04a33.238,33.238,0,0,1-4.432,2.527c-1.459.811-2.932,1.595-4.419,2.365q-4.635,2.432-9.378,4.676c-12.554,5.959-25.473,11.108-38.3,16.473a27.023,27.023,0,0,1-4.365,1.351c-.838.189-.905,1.054-.473,1.649q3.054,4.216,6.311,8.3a1.581,1.581,0,0,0,1.838.432c4.054-1.567,7.919-3.311,11.851-5.013,3.486-1.514,7.068-2.77,10.541-4.3a196.177,196.177,0,0,0,23.77-12.784q5.581-3.459,11.041-7.068c2.23-1.459,4.432-2.973,6.757-4.27.351-.189.7-.378,1.068-.554l.459-.2.351-.149a8.836,8.836,0,0,1,.851-.243l.432-.081h.284a13.856,13.856,0,0,0,1.473.081c.378-.068-.23,0-.081-.122a.473.473,0,0,1,0,.189,32.446,32.446,0,0,1-.527,3.568,37.013,37.013,0,0,0,.554,9.919,35.137,35.137,0,0,0,2.608,8.568,31.554,31.554,0,0,0,11.013,12.8,48.849,48.849,0,0,0,19.162,7.513c8.608,1.446,17.189-.257,25.189-3.541a182.709,182.709,0,0,0,22.27-11.662,211.652,211.652,0,0,0,21.2-13.959q2.311-1.757,4.527-3.622c.824-.689-.284-1.716-.946-1.905-7.459-2.095-15.392-.608-22.973-1.919-1.73-.3-1.811,1.919-.23,2.189a77.659,77.659,0,0,0,11.757.784,44,44,0,0,1,11.216,1.149l-.946-1.919a166.791,166.791,0,0,1-20.541,14.405c-7.013,4.284-14.189,8.324-21.54,12-7.77,3.878-16.216,6.757-25.014,6.23a44.674,44.674,0,0,1-20.27-6.513,29.433,29.433,0,0,1-11.338-12.257,32.27,32.27,0,0,1-2.595-8.284,33.594,33.594,0,0,1-.486-9.865c.27-2.108,1.284-4.851-1.351-5.851a7.554,7.554,0,0,0-5.324.284,28.379,28.379,0,0,0-4.892,2.7c-3.176,2.027-6.311,4.054-9.459,6.149a241.07,241.07,0,0,1-23.27,13.432c-4.054,1.986-8.108,3.811-12.338,5.405-3.243,1.216-6.378,2.7-9.541,4.054-2.122.905-4.243,1.8-6.378,2.7l1.838.432c-2.162-2.7-4.27-5.487-6.311-8.3l-.473,1.649a56.2,56.2,0,0,0,9-3.216l9.8-4.054c6.486-2.7,12.932-5.405,19.324-8.338s12.743-6.013,18.919-9.459c1.473-.811,3.027-1.595,4.446-2.54a3.189,3.189,0,0,0,1.486-2.7c0-3.041-3.284-3.554-5.554-4.311-10-3.324-20-8.108-27.243-15.932a42.175,42.175,0,0,1-8.446-14.054,88.515,88.515,0,0,1-4.784-18.784,59.04,59.04,0,0,1,6.284-36.594c.8-1.446,1.676-2.851,2.595-4.216l-2.419-.284c4.838,12.7,9.176,26.013,18.5,36.257,4.473,4.919,9.905,9.608,16.324,11.7,2.932.959,9.027,2.7,10.716-1.2,1.351-3-.581-7.027-1.743-9.77-1.568-3.743-3.324-7.365-4.581-11.162-3.743-11.284-7.419-23.081-7.622-35.068a39.052,39.052,0,0,1,2.568-15.541,28.838,28.838,0,0,1,10.013-12.514,39.01,39.01,0,0,1,3.905-2.419l-2.122-1.284a103.563,103.563,0,0,0,2.824,19.081,124.328,124.328,0,0,0,4.946,16.554,149.732,149.732,0,0,0,6.568,13.595q2.108,4.135,4.3,8.216a20.162,20.162,0,0,0,7.986,8.108c2.5,1.351,6.554,2.473,8.243-.649A9.459,9.459,0,0,0,291,469.33a89.274,89.274,0,0,0-2.3-9.365c-1.838-6.432-4.054-12.757-5.919-19.189-3.595-12.392-6.135-25.973-.446-38.162a37.65,37.65,0,0,1,2.527-4.568l-.689.527,22.135-5.716,3.135-.811-1.595-1.905c-4.5,5.878-4.905,13.757-6.122,20.784-.676,3.905-1.932,7.635-2.851,11.487a58.829,58.829,0,0,0-1.73,12.838,34.243,34.243,0,0,0,6.446,21.216c1.824,2.432,4.3,5.122,7.419,5.757a6.379,6.379,0,0,0,6.851-2.865,14.378,14.378,0,0,0,1.351-7.378c0-2.8-.162-5.608-.311-8.405-.338-6.541-1-13.095-.5-19.649.459-6.149,2.095-12.392,6.473-16.946,5.73-5.932,14.162-7.676,22.122-7.608,4.365,0,8.716.513,13.068.878,3.662.3,7.311.473,10.959.959,6.824.892,14.405,2.2,20.878-.932a15.8,15.8,0,0,0,4.149-2.959l-2.365-1.108c-.216,12.23,4.122,25.2-2.122,36.622a23.352,23.352,0,0,1-10.095,9.459,48.85,48.85,0,0,1-6.757,2.7c-2.135.716-4.338,1.243-6.419,2.108a34.325,34.325,0,0,0-10.622,7.216c-2.7,2.7-5.405,6.284-5.176,10.257.23,4.581,4.541,7.649,8.486,9.095a16.459,16.459,0,0,0,12.77-.73,47.794,47.794,0,0,0,10.919-7.878,56.76,56.76,0,0,1,9.932-7.649,13.845,13.845,0,0,1,2.378-1.054l-1.824-1.095a139.585,139.585,0,0,1,2.257,15.3c.351,5.041.122,10.473-2.23,15.041-2.838,5.527-8.919,8.108-14.77,9.23-7.081,1.351-14.2-.27-21.122-1.716a75.423,75.423,0,0,0-17.716-2.175c-4.608.148-10.365.689-13.892,4.054a6.176,6.176,0,0,0-1.851,6.189,11.176,11.176,0,0,0,4.811,5.541,61.211,61.211,0,0,0,6.986,3.811,31.3,31.3,0,0,0,9.459,2.878c13.757,1.946,27.027-3.622,40.541-5.473,1.554-.2,3.095-.351,4.649-.419l-1.527-1.432a32.311,32.311,0,0,1-3.365,11.865,55.514,55.514,0,0,1-7.851,12.608c-2.568,3.068-5.8,6.351-9.73,7.54-5.108,1.554-10.716.851-15.824-.311a159.477,159.477,0,0,1-16.8-5.324,81.452,81.452,0,0,0-15.405-4.284c-4.054-.568-9.459-.784-12.554,2.54a6.757,6.757,0,0,0-1.77,5.743,8.257,8.257,0,0,0,3.27,4.622c3.432,2.7,7.716,4.135,11.419,6.378,5.405,3.311,10.892,6.757,17,8.811a33.316,33.316,0,0,0,4.568,1.176C345.321,557.762,345.388,555.546,343.821,555.249Z" transform="translate(1074 791.472)" fill="#395848"/>
      <path id="Path_18" data-name="Path 18" d="M247.7,467.829h0a1.6,1.6,0,0,0-.149-.257l-.23-.405a11.25,11.25,0,0,1-.514-1.081,10.172,10.172,0,0,1-.649-2.027,9.161,9.161,0,0,1-.216-1.987,5.406,5.406,0,0,1,.081-.932,2,2,0,0,1,.216-.757l.162-.338.122-.2c.081-.149-.176.2,0,0l.23-.284.176-.149h0l.365-.216.176-.081h0l.473-.108h.446a3.743,3.743,0,0,1,1.027.108l.7.149c.365.081.081,0,0,0l.257.108h.095l.095.068.338.27c.27.23-.122-.122,0,0l.2.216.392.486a19.04,19.04,0,0,1,2.432,4.8,25.067,25.067,0,0,1,1.284,4.662,13.083,13.083,0,0,1,.149,2.621,7.713,7.713,0,0,1-.149,1.122c0,.095,0,.189,0,.27h0a1.066,1.066,0,0,1-.176.446c-.068.149-.27.446-.095.2-.068.081-.135.176-.2.243s-.378.3-.108.122a2.317,2.317,0,0,1-.311.176c-.2.122.2,0,0,0h-.311c.284-.095.2,0,.108,0h-.514l-.419-.108c.419.122-.108,0-.2-.108a1.72,1.72,0,0,0-.473-.243c-.162-.081-.216-.135,0,0l-.27-.162a10.253,10.253,0,0,1-.959-.757l-.162-.149c-.3-.257.176.189-.108-.095a4.718,4.718,0,0,1-.419-.446,12.866,12.866,0,0,1-2.7-4.608,1.581,1.581,0,0,0-1.514-1.135c-.541,0-1.284.473-1.068,1.135A16.7,16.7,0,0,0,248.3,473.8a10.811,10.811,0,0,0,4.054,3.176,4.054,4.054,0,0,0,4.284-.405,6.041,6.041,0,0,0,1.351-4.7,21.338,21.338,0,0,0-1.108-5.676,26.081,26.081,0,0,0-2.7-6,9.46,9.46,0,0,0-1.973-2.3,5.891,5.891,0,0,0-2.8-1.122,5.324,5.324,0,0,0-5.081,1.351,6.635,6.635,0,0,0-1.014,5.243,14.053,14.053,0,0,0,2.27,5.635,1.527,1.527,0,0,0,1.838.433A1.032,1.032,0,0,0,247.7,467.829Z" transform="translate(1094.576 814.85)" fill="#395848"/>
      <path id="Path_19" data-name="Path 19" d="M299.658,428.743v.176l2.054-.8c-3.095-1.959-6.568-5.027-6.081-9.095.365-3.014,2.595-4.716,5.23-5.73l-2.122-.986v.149c0,.838,1.176,1.216,1.824,1.095a3.189,3.189,0,0,1,2.959.838,8.109,8.109,0,0,1,1.811,4.919,18.729,18.729,0,0,1-.216,6.2,5.406,5.406,0,0,1-.73,1.743,2.837,2.837,0,0,1-.811.743s-.338.135-.135.068l-.338.095h-.554a1.1,1.1,0,1,0-.135,0l-.378-.095h0l-.216-.095-.446-.2a1.27,1.27,0,0,0-1.689.419c-.3.622.243,1.284.77,1.541a5.527,5.527,0,0,0,4.054.541,4.6,4.6,0,0,0,2.878-3.081,17.7,17.7,0,0,0,.554-7.243,10.527,10.527,0,0,0-2.541-6.757,6.554,6.554,0,0,0-5.932-1.8l1.838,1.095v-.2c0-.987-1.351-1.27-2.122-.987a9.243,9.243,0,0,0-5.635,5.054,8.986,8.986,0,0,0,1.257,8.446,18.2,18.2,0,0,0,5.405,4.892c.824.527,2.122.419,2.054-.8v-.176C302.158,427.378,299.563,427.148,299.658,428.743Z" transform="translate(1112.096 798.896)" fill="#395848"/>
      <path id="Path_20" data-name="Path 20" d="M277.91,478.9a3.9,3.9,0,0,1,.892-1.351,1.689,1.689,0,0,1,.878-.432,3.841,3.841,0,0,0,1.068-.365c.2-.122-.2.068,0,0h.176l.405-.108h1.459l.432.095.419.108c.108,0,.676.216.27.068a12.618,12.618,0,0,1,1.743.77,3.638,3.638,0,0,1,.392.216c.108,0,.446.257.162.081.311.2.608.392.905.608a17.071,17.071,0,0,1,1.541,1.23c.27.257-.108-.108.162.176l.3.3c.216.23.432.473.635.73s.338.432.5.662-.162-.257,0,0l.081.135.243.419c.108.23.2.473.3.7-.095-.257,0,0,0,.095a1.769,1.769,0,0,1,.081.365,2.876,2.876,0,0,1,0,.338v.378a.487.487,0,0,0,0,.149c0,.189.095-.2,0,0l-.27.568c.149-.3,0,0-.081.068a2.078,2.078,0,0,1-.243.243c-.216.216.149-.068-.122.108l-.338.2-.392.189h-.257a9.3,9.3,0,0,1-1.054.27,6.908,6.908,0,0,1-1.068.149h-1.311l-.5-.108-.432-.122-.3-.095h0l-1.135-.473c-.432-.2-.865-.432-1.284-.662a1.341,1.341,0,0,0-.23-.135c-.135-.081-.149-.095,0,0l-.176-.108-.595-.392a14.181,14.181,0,0,1-1.149-.865,9.755,9.755,0,0,1-.905-.824,8.818,8.818,0,0,1-.838-1.04c.135.189-.122-.216-.176-.3a5.517,5.517,0,0,1-.257-.568c-.122-.284,0,.149,0,0l-.081-.324v-.27a2.706,2.706,0,0,1,0-.568h0s.081-.243.135-.365c.568-1.351-1.878-2.46-2.446-1.149-1.527,3.473,2.324,6.757,4.905,8.351a16.025,16.025,0,0,0,4.973,2.176,9.688,9.688,0,0,0,4.959-.378,4.568,4.568,0,0,0,2.959-2.284,4.379,4.379,0,0,0-.122-3.378,13.351,13.351,0,0,0-5.541-5.865c-2.5-1.527-6.108-2.973-8.905-1.351l.608-.149a4.54,4.54,0,0,0-3.838,2.865C274.856,479.046,277.3,480.2,277.91,478.9Z" transform="translate(1105.803 821.052)" fill="#395848"/>
      <path id="Path_21" data-name="Path 21" d="M392.58,396.613c-1.487,4.54-4.73,8.392-7.7,12.041-3.365,4.122-6.527,8.365-9.784,12.554a257.436,257.436,0,0,1-23.7,26.595c-8.554,8.3-17.568,16.216-26.2,24.324-9.054,8.486-17.946,17.122-26.811,25.811-4.662,4.581-9.243,9.2-13.622,14.054-3.622,4.054-7.162,8.108-10.811,12.014a159.356,159.356,0,0,1-27.919,24.189c-15.473,10.351-32.689,17.987-50.149,24.324-2.865,1.041-5.757,2.054-8.649,3.027-1.595.541-.257,2.635,1.054,2.189,18.919-6.405,37.635-13.986,54.649-24.54a155.89,155.89,0,0,0,30.122-24.432c7.581-7.865,14.5-16.338,22.23-24.081,8.338-8.351,16.851-16.54,25.405-24.676,8.784-8.338,17.838-16.446,26.7-24.757A266.223,266.223,0,0,0,372.04,429.3c3.784-4.622,7.378-9.365,10.987-14.108,2.919-3.838,6.189-7.392,8.878-11.405a24,24,0,0,0,3.122-6.013c.432-1.351-1.986-2.486-2.419-1.162Z" transform="translate(1074.673 793.567)" fill="#395848"/>
      <path id="Path_22" data-name="Path 22" d="M266.148,393.912a27.608,27.608,0,0,1-1.027,9.676c-.365,1.595-.757,3.176-1.068,4.784a48.257,48.257,0,0,0-.581,5.013c-.324,3.757-.851,7.5-.973,11.27s-.095,7.257.108,10.892a82.691,82.691,0,0,0,3.959,21.513,214.392,214.392,0,0,0,8.378,19.8,40.54,40.54,0,0,1,2.7,7.892c.54,2.446,1.135,5.5,0,7.865-.608,1.284,1.811,2.446,2.419,1.162a12.459,12.459,0,0,0,.473-7.135,38.028,38.028,0,0,0-2.108-7.7c-1.095-2.919-2.513-5.73-3.811-8.567-1.513-3.311-2.986-6.635-4.3-10.027A79.42,79.42,0,0,1,265.4,438.98a106.7,106.7,0,0,1,.405-22.459c.216-2.027.284-4.054.581-6.095.284-1.784.7-3.554,1.108-5.311.838-3.635,1.716-7.351,1.2-11.095-.176-1.351-2.77-1.622-2.554,0Z" transform="translate(1101.349 792.47)" fill="#395848"/>
      <path id="Path_23" data-name="Path 23" d="M231.479,410.153c-.122,9.068-.365,18.189.743,27.216a75.325,75.325,0,0,0,7.973,25.743,120.265,120.265,0,0,0,7.851,12.865c.838,1.2,3.014.351,2.014-1.081A93.621,93.621,0,0,1,237.9,451.828a87.43,87.43,0,0,1-3.946-26.081c-.108-5,0-10,0-14.986,0-1.351-2.554-2.095-2.568-.608Z" transform="translate(1090.437 798.243)" fill="#395848"/>
      <path id="Path_24" data-name="Path 24" d="M251.523,471.924c2.527,5.595,4.054,12.013,8.892,16.216,1.2,1.027,2.865-.405,1.541-1.541-4.419-3.784-5.77-10.068-8.108-15.162-.568-1.257-3.068-1-2.365.541Z" transform="translate(1097.46 819.782)" fill="#395848"/>
      <path id="Path_25" data-name="Path 25" d="M267.858,476.852a74.435,74.435,0,0,1,11.122,2.7,1.095,1.095,0,0,0,1.419-.784c.095-.73-.568-1.189-1.162-1.351a74.968,74.968,0,0,0-11.135-2.7c-.581-.108-1.351.081-1.351.784a1.351,1.351,0,0,0,1.162,1.351Z" transform="translate(1102.868 821.206)" fill="#395848"/>
      <path id="Path_26" data-name="Path 26" d="M288.285,484.208a119.6,119.6,0,0,0,24.324,5.8c4.122.608,8.257,1.108,12.405,1.541a112.473,112.473,0,0,0,12.8.892,35.135,35.135,0,0,0,14.2-2.892,1,1,0,0,0,.2-1.527,1.554,1.554,0,0,0-1.824-.446c-7.784,3.527-16.378,2.7-24.635,1.838a217,217,0,0,1-23.784-3.527,92.127,92.127,0,0,1-12.716-3.608c-.568-.2-1.351-.257-1.662.392a1.23,1.23,0,0,0,.743,1.541Z" transform="translate(1110.171 823.823)" fill="#395848"/>
      <path id="Path_27" data-name="Path 27" d="M361.255,449.84c-5.257,8.189-15.149,11.176-24.405,11.622a66.9,66.9,0,0,1-14.135-.905c-5.216-.865-10.23-2.473-15.365-3.7-6.757-1.635-14.23-2.7-20.784.419-1.432.676.405,2.554,1.622,1.987,5.757-2.7,12.378-1.77,18.365-.365,5.243,1.23,10.378,2.905,15.7,3.811,9.54,1.608,19.878,1.811,29.027-1.77A25.676,25.676,0,0,0,363.674,451c.757-1.176-1.649-2.365-2.419-1.162Z" transform="translate(1109.647 812.299)" fill="#395848"/>
      <path id="Path_28" data-name="Path 28" d="M244,501.491c6.284-2.405,11.986,2.122,16.338,6.162,2.446,2.27,4.743,4.7,7.338,6.757a57.648,57.648,0,0,0,9.311,6.122,90.8,90.8,0,0,0,21.027,7.608,61.11,61.11,0,0,0,23.513,1.608,44.029,44.029,0,0,0,12.892-3.73c3.77-1.838,7.351-4.23,11.486-5.176,1.649-.378.3-2.5-1.054-2.189a43.09,43.09,0,0,0-10.27,4.486,37.928,37.928,0,0,1-5.122,2.324,51.159,51.159,0,0,1-6.176,1.608,55.053,55.053,0,0,1-23.432-.73,89.3,89.3,0,0,1-21.459-7.487,54.229,54.229,0,0,1-9.189-6c-2.581-2.108-4.878-4.541-7.324-6.757a31.782,31.782,0,0,0-8.905-6.284,13.756,13.756,0,0,0-10.581-.3c-.635.23-.541,1.095-.2,1.527a1.568,1.568,0,0,0,1.811.446Z" transform="translate(1094.146 829.608)" fill="#395848"/>
      <path id="Path_29" data-name="Path 29" d="M203.331,436.653c1.351,8.027.081,16.216.851,24.257a53.014,53.014,0,0,0,6.378,19.865,48.176,48.176,0,0,0,13.216,15.5c5.878,4.5,12.392,8.041,18.567,12.081a86.776,86.776,0,0,1,8.8,6.378,10.811,10.811,0,0,1,4.054,7.649c.108,1.351,2.7,1.622,2.554,0a12.473,12.473,0,0,0-3.27-7.54,45.2,45.2,0,0,0-6.865-5.527c-6.013-4.3-12.54-7.811-18.635-11.987a56.754,56.754,0,0,1-8.351-6.649,43.758,43.758,0,0,1-6.162-7.838,53.351,53.351,0,0,1-7.338-19.027c-1.5-9,.27-18.2-1.23-27.216-.216-1.351-2.811-1.608-2.554,0Z" transform="translate(1080.584 807.432)" fill="#395848"/>
      <path id="Path_30" data-name="Path 30" d="M311.26,398.087c1.811,1.595,2.324,4.811,2.7,7.122a45.39,45.39,0,0,1,.595,8.446c-.149,4.054-2.122,7.581-3.284,11.324s-2.365,7.149-3.257,10.811c-1,4.122-1.527,8.581-.162,12.689a1.581,1.581,0,0,0,1.486,1.135c.541,0,1.284-.446,1.068-1.108a21.244,21.244,0,0,1,0-11.554c.865-3.757,2.176-7.392,3.311-11.067,1.23-3.919,3.324-7.7,3.378-11.892a52.845,52.845,0,0,0-.649-8.608c-.459-3.108-1.243-6.649-3.7-8.811-1.189-1.041-2.851.392-1.541,1.554Z" transform="translate(1117.021 793.633)" fill="#395848"/>
    </g>
    <path id="Path_31" data-name="Path 31" d="M679.527,297.4a155.374,155.374,0,0,1-1.65,26.813c-1.155,10.127-1.918,21.162,3.775,30.134a1.194,1.194,0,0,1,.145.433c12.788,10.313,25.658,20.461,38.755,30.34a106.6,106.6,0,0,1,1.4-14.232c-5.961-2.454-6.188-9.405-4.125-14.706,1.65-4.125,5.4-10.313,10.5-10.457h.639a1.343,1.343,0,0,1,0-.289c3.2-14.933,3.383-30.361,2.991-45.583-.351-13.8-.165-28.484-7.673-40.632v-.165a50,50,0,0,0-17.821-3.032c3.878,17.717,13.592,33.764,16.047,51.873a50.163,50.163,0,0,1-2.5,23.41c-1.774,5.342-4.125,12.6-9.57,15.222-6.188,2.929-11.447-2.6-13.86-7.755a53.957,53.957,0,0,1-4.311-21.616c-.392-18.419,4.826-37.6-5.982-54.163-6.724-10.313-17.408-11.695-28.422-10.045C673.38,261.718,678.619,280.487,679.527,297.4Z" transform="translate(1576.894 645.162)" fill="#ffdbc2"/>
    <path id="Path_32" data-name="Path 32" d="M648.328,291.776a381.271,381.271,0,0,1,47.439,33q15.284,12.375,30.526,24.751c-5.239-14.438.474-31.31.536-46.16,0-18.274-4.331-41.066-22.564-49.708a1.032,1.032,0,0,1-.6-.66,169.363,169.363,0,0,0-18.274,5.425c3.156,5.363,8.5,9.405,13.118,13.386,5.033,4.29,10.313,8.7,13.881,14.314,5.4,8.457,5.631,23.6-4.558,28.876-8.786,4.6-18.852-3.713-24.5-9.756-9.818-10.56-11.942-26.257-24.751-34.28-14.995-9.323-31.743-3.383-47.769,0a79.639,79.639,0,0,1,16.15,8.25C633.89,283.712,641.233,287.589,648.328,291.776Z" transform="translate(1526.89 645.836)" fill="#ffdbc2"/>
    <path id="Path_33" data-name="Path 33" d="M701.352,293.542c.454,15.882.268,32.011-3.053,47.6a1.464,1.464,0,0,1-.578.846c3.424,2.063,4.125,8.25,3.3,11.839-1.093,4.641-4.455,12-9.8,12.829a108.568,108.568,0,0,0-1.341,14.871,1.486,1.486,0,0,1-.454.949c.536.433,1.093.846,1.65,1.258,12.19,9.1,25.2,16.975,37.5,25.926,3.032,2.207,6,4.517,8.89,6.889-.928-6.435,1.733-12.788,5.4-18.563,2.31-3.609,4.991-6.992,7.425-10.54a74.853,74.853,0,0,0,9.117-18.089,124.8,124.8,0,0,0,6.373-35.559,74.254,74.254,0,0,0-4.269-29.1,60.088,60.088,0,0,0-7.776-14.582c-1.671-2.31-3.341-4.62-4.826-7.013.413,7.962,2.228,15.9,2.063,23.884-.578,10.519-4.6,20.089-8.7,29.639-2.764,6.415-4.125,14.19-8.127,20.007a9.282,9.282,0,0,1-12.375,3.589c-5.816-3.011-6.827-10.663-6.868-16.5-.144-14.562,4.868-28.752,6.621-43.108a55.686,55.686,0,0,0-.866-21.842,26.812,26.812,0,0,0-11.385-14.438,77.023,77.023,0,0,0-14.149-7.8C700.919,267.8,700.919,280.878,701.352,293.542Z" transform="translate(1610.429 649.597)" fill="#ffdbc2"/>
    <path id="Path_34" data-name="Path 34" d="M628.687,307.8a40.7,40.7,0,0,1,17.656-1.629c12.21,2.063,27.494,7.714,39.7,2.8a361.9,361.9,0,0,0-40.694-27.061c-6.188-3.609-12.6-7.033-18.769-10.787-5.631-3.4-11.447-7.013-17.924-8.457,5.445,6.188,6.7,14.727,6.992,23.018.33,9.24.66,18.46,1.176,27.68a26.814,26.814,0,0,1,11.86-5.569Z" transform="translate(1524.605 656.11)" fill="#ffdbc2"/>
    <path id="Path_35" data-name="Path 35" d="M769.33,337.38l-.31.124c-6.889,1.712-9.715,7.1-12.829,12.912-3.362,6.291-6.188,12.829-9.055,19.368-5.259,11.983-10.911,23.616-20.626,32.547A76.685,76.685,0,0,1,696.975,419.1c-11.262,3.28-23.142,3.135-34.445,6.188a80.564,80.564,0,0,0,48.965,4.249c15.9-3.445,33.6-10.519,45.046-22.42a68.887,68.887,0,0,0,14.706-24.483,116.112,116.112,0,0,0,3.96-13.654c.516-2.248.99-4.5,1.4-6.745a18.971,18.971,0,0,1,1.134-5.4,5.053,5.053,0,0,1,5.445-2.557c3.094.7,5.156,4.95,6.889,7.281,5.878,7.838,11.365,15.964,16.624,24.214s10.6,17.161,15.737,25.844c4.125,7.075,9.075,14.087,12.375,21.678l2.475-2.434c-13.345-26.257-28.5-52-48.1-74.108A202.178,202.178,0,0,0,769.33,337.38Z" transform="translate(1581.846 735.495)" fill="#ffdbc2"/>
    <path id="Path_36" data-name="Path 36" d="M732.928,280.087A60.961,60.961,0,0,1,739.487,295c5.9,19.12,3.3,41.561-2.723,60.351-3.362,10.478-8.993,19.079-15.242,27.989-5.033,7.157-10.107,15.882-5.982,24.544,29.866,25.8,51.3,59.154,69.261,94.4l3.032-3.135c-6.188-10.746-12.375-21.657-19.12-32.011a314.824,314.824,0,0,0-25.184-32.774c-4.971-5.816-11.262-11.488-15.2-18.13-1.939-3.279-3.135-9.178,1.918-9.9,2.578-.371,5.218,0,7.817-.268a61.859,61.859,0,0,0,7.487-1.547,45.375,45.375,0,0,0,13.634-6.085,42.943,42.943,0,0,0,16.232-22.544,60.95,60.95,0,0,0,2.5-31.578,76.9,76.9,0,0,0-12.561-27.061A312.61,312.61,0,0,0,724.7,268C727.111,272.125,730.308,275.961,732.928,280.087Z" transform="translate(1636.563 661.774)" fill="#ffdbc2"/>
    <path id="Path_37" data-name="Path 37" d="M744.935,389.533A70.125,70.125,0,0,1,730.7,410.654c-9.55,10.086-21.76,17.078-33.95,23.7,9.591-1.794,19.429-2.063,28.876-4.888a71.612,71.612,0,0,0,32.857-21.224c9.282-10.725,13.819-24.751,19.718-37.456,4.125-8.7,8.065-18.852,17.49-22.338q-8.25-6.827-17.016-12.994c-5.218-3.651-11.344-6.786-16.6-10.313-4.93,6.951-13.964,10.952-20.626,15.119h0c2.7,5.321-4.744,11.3-9.1,13.7-2.805,2.393-8.374,5.363-12.6,4.125-12.066,10.993-25.081,20.523-40.571,26.071-14.067,5.033-28.876,6.889-43.541,8.745a38.268,38.268,0,0,0,10.87,4.826,57.5,57.5,0,0,0,27.267-.268,171.63,171.63,0,0,0,46.944-18.914c4.95-2.826,20.626-16.232,25.844-8.25C749.823,375.467,746.977,384.542,744.935,389.533Z" transform="translate(1553.273 722.489)" fill="#ffdbc2"/>
    <path id="Path_38" data-name="Path 38" d="M698.341,395.518c15.366-5.3,28.5-14.624,40.447-25.473a5.917,5.917,0,0,1-1.258-1.671c-3.692-7.363,4.393-12.54,9.839-15.325,3.176-1.629,11.654-5.4,15.284-2.351,6.641-4.125,14.438-7.24,19-13.9l.124-.124c-7.24-4.95-14.438-9.942-21.409-15.3l-11.055-8.518a1.382,1.382,0,0,1-.908,0c-4.806-1.3-10.519,1.279-14.809,3.3a131.309,131.309,0,0,0-14.438,8.621,139.1,139.1,0,0,1-33.744,16.707,143.242,143.242,0,0,1-36.858,6.188,148.529,148.529,0,0,1-17.923.165,55.19,55.19,0,0,0-14.747-.1l3.2,7.714a18.565,18.565,0,0,0,2.413,5.383c1.505,1.217,5.4,1.918,7.425,2.475a46.218,46.218,0,0,0,7.858,1.444,56.452,56.452,0,0,0,14.912-.557A118.637,118.637,0,0,0,681.3,354.164c9.467-4.311,18.687-9.137,28.3-13.138,4.455-1.856,16.5-8.126,19.45-.908,2.413,5.94-3.486,14.087-7.528,17.841A146.871,146.871,0,0,1,705.6,369.571c-18.109,12.623-38.013,22.5-59.814,27.1a48.082,48.082,0,0,0,7.59,7.467,1.219,1.219,0,0,1,.413-.144C668.888,402.1,684.048,400.427,698.341,395.518Z" transform="translate(1532.277 709.058)" fill="#ffdbc2"/>
    <path id="Path_39" data-name="Path 39" d="M651.534,374.271a138.664,138.664,0,0,0,42.1-7.611c12.974-4.7,24.318-12.375,35.909-19.739,5.342-3.362,12.664-7.57,19.512-7.776-8.787-6.827-17.532-13.675-26.195-20.626C709.9,308.1,697.3,297.3,684.226,287.045l-.206.144c-10.6,5.033-23.245,1.753-34.239-.227-6.662-1.2-12.375-2.826-19.223-1.526-5.3,1.031-13.469,2.063-16.872,6.889a1.649,1.649,0,0,1-.742.557v1.567c.681,10.725,2.269,21.781,8.663,30.753,6.827,9.57,17.264,13.345,28.711,13.138,10.7-.186,21.141-3.011,31.6-4.971,6.456-1.217,18.047-5.136,23.41.557,6.291,6.662-1.794,15.49-6.848,19.8a48.121,48.121,0,0,1-26.112,10.684c-10.746,1.238-20.894-.969-31.557-1.547-9.385-.5-19.388.516-28.319-2.723L618,373.4l.454,1.134a49.235,49.235,0,0,1,15.366-.268,143.382,143.382,0,0,0,17.717,0Zm2.31-54.967c-5.156.289-8.952-2.784-11.406-7.054a1.279,1.279,0,0,1,0-1.093c-1.939-8.848,8.869-12.169,15.882-12.664,5.383-.371,10.973,1.671,9.612,7.673a1.464,1.464,0,0,1,0,1.052c-2.826,5.672-7.281,11.674-14.087,12.087Z" transform="translate(1528.675 679.793)" fill="#ffdbc2"/>
    <path id="Path_40" data-name="Path 40" d="M450.586,565.91c-4.047-4.342-5.879-10.491-7.38-16.075-.824-2.964-1.537-5.953-2.288-8.942s-1.673-5.965-2.521-8.954c-4.415-15.62-6.334-31.794-8.376-47.857a219.1,219.1,0,0,1-2.312-24.882,183.608,183.608,0,0,1,1.587-24.919c1.033-8.228,2.46-16.407,3.862-24.6,1.378-7.9,2.521-15.842,4.108-23.689,2.878-14.243,7.712-28.5,16.69-40.108q1.66-2.152,3.505-4.17l-2.116-.75c.959,6.814-.59,13.665-.763,20.491-.185,7.134,1.23,14.329,2.362,21.34q1.845,10.885,3.235,21.819a178.235,178.235,0,0,1,1.771,22.139c.074,14.649-3.69,28.953-4.711,43.5-1.033,14.759.111,29.519.9,44.278.394,7.38.738,14.858.541,22.287-.2,7.134-.849,14.243-1.537,21.339-.172,1.808-.357,3.6-.529,5.4-.123,1.23,2.214,1.906,2.337.553.7-7.109,1.451-14.218,1.845-21.364s.3-14.636,0-21.967c-.652-14.956-2.029-29.9-1.451-44.881.553-14.673,4.12-28.99,4.858-43.626a136.9,136.9,0,0,0-.959-21.758c-.8-7.38-1.882-14.759-3.026-22.139s-2.46-14.489-3.124-21.819c-.615-6.986.972-13.9.935-20.909a36.639,36.639,0,0,0-.332-4.785c-.123-.836-1.5-1.439-2.115-.763-10,11.07-15.8,24.906-19.3,39.211-1.857,7.626-2.964,15.387-4.293,23.111-1.439,8.351-2.964,16.69-4.194,25.079a216.4,216.4,0,0,0-2.349,25.029,160.448,160.448,0,0,0,1.525,25.472c2.128,16.321,3.837,32.778,7.81,48.8.886,3.542,1.993,7.023,2.964,10.553.787,2.878,1.464,5.781,2.2,8.671,1.513,5.953,3.136,12.2,6.433,17.465a20.807,20.807,0,0,0,2.46,3.235,1.414,1.414,0,0,0,1.66.418.9.9,0,0,0,.185-1.39Z" transform="translate(1301.186 776.536)" fill="#ffdbc2"/>
    <path id="Path_41" data-name="Path 41" d="M452.082,340.455c-4.514,12.1-7.072,25-8.979,37.747-.763,5.178-1.427,10.393-1.71,15.62-.418,7.49-.16,15.042-.135,22.545,0,8.757,0,17.514-.123,26.272s-.713,17.662-1.095,26.493a311.56,311.56,0,0,0,1.771,51.916c.455,3.69,1.033,7.294,1.439,10.959.381,3.469.713,6.949,1.095,10.43a96.175,96.175,0,0,0,3.9,20.54,37.421,37.421,0,0,0,1.7,4.256c.541,1.144,2.817.9,2.152-.492-2.853-6.051-3.985-12.8-4.846-19.384-.886-6.789-1.341-13.628-2.3-20.417a303.092,303.092,0,0,1-2.755-51.51c.234-8.745.9-17.465,1.144-26.21s.283-17.379.271-26.075-.086-17.379,0-26.075a120.528,120.528,0,0,1,1.23-13.788,208.445,208.445,0,0,1,8.019-37.661c.455-1.378.935-2.755,1.439-4.108s-1.759-2.263-2.2-1.058Z" transform="translate(1304.462 776.554)" fill="#ffdbc2"/>
    <path id="Path_42" data-name="Path 42" d="M444.049,537.686c-4.329-9.163-10.319-17.477-13.948-26.985-4.01-10.516-6.47-21.622-9.188-32.532-1.341-5.387-2.681-10.787-4.342-16.088s-3.518-10.344-5.609-15.411a280.862,280.862,0,0,0-13.529-27.612c-4.292-7.81-8.991-15.866-15.682-21.893-.75-.664-1.525-1.3-2.325-1.894-.418-.32-1.23-.529-1.648,0-2.46,3.075-2.46,7.8-2.46,11.561.062,4.44.627,8.856.664,13.3,0,2.878-.209,5.756-.246,8.61,0,3.345,0,6.679.172,10.012a136.656,136.656,0,0,0,2.325,19.888,115.527,115.527,0,0,0,12.681,34.7,142.673,142.673,0,0,0,20.737,27.809,219.645,219.645,0,0,0,25.829,23.16l3.407,2.6a1.3,1.3,0,0,0,1.648,0,1,1,0,0,0-.246-1.451,230.971,230.971,0,0,1-25.829-22.213,147.775,147.775,0,0,1-21.192-26.6,113.5,113.5,0,0,1-13.529-32.815,146.218,146.218,0,0,1-3.481-39.358,60.891,60.891,0,0,0,0-6.531c-.148-2.189-.3-4.477-.418-6.7a65.511,65.511,0,0,1-.123-6.777,19.2,19.2,0,0,1,.91-5.843,6.764,6.764,0,0,1,1.021-1.93H378a43.234,43.234,0,0,1,8.757,9.212A110.308,110.308,0,0,1,394,417.3,285.352,285.352,0,0,1,407.4,443.939c2.177,5.03,4.169,10.135,5.9,15.325s3.161,10.6,4.514,15.989c2.743,10.848,5.252,21.758,8.831,32.372a87.734,87.734,0,0,0,6.26,14.071c2.4,4.4,5.006,8.7,7.318,13.148.578,1.107,1.144,2.226,1.673,3.358s2.817.9,2.152-.492Z" transform="translate(1289.667 789.214)" fill="#b8d0d2"/>
    <path id="Path_43" data-name="Path 43" d="M376.744,396.607c3.874,10.885,6.285,22.2,8.708,33.479s4.92,22.619,8.77,33.516a135.41,135.41,0,0,0,7.072,15.989c2.743,5.4,5.485,10.787,8.351,16.112s5.855,10.528,9.089,15.608c3.026,4.748,6.433,9.225,9.483,13.96,5.756,8.917,10.8,18.449,17.859,26.468.824.935,1.673,1.833,2.558,2.706a1.414,1.414,0,0,0,1.648.406.9.9,0,0,0,.184-1.39c-7.527-7.38-12.705-16.912-18.277-25.829-1.378-2.226-2.792-4.428-4.268-6.593s-3.235-4.514-4.785-6.826c-3.37-4.994-6.457-10.184-9.384-15.448s-5.695-10.651-8.437-15.989a174.368,174.368,0,0,1-7.527-15.891c-4.219-10.725-6.814-21.991-9.249-33.209s-4.7-22.52-8.241-33.454c-.455-1.378-.91-2.743-1.4-4.108-.418-1.23-2.657-.947-2.152.5Z" transform="translate(1289.977 789.304)" fill="#b8d0d2"/>
    <path id="Path_44" data-name="Path 44" d="M700.475,629.6a138.955,138.955,0,0,1-5.8-48.264,143,143,0,0,1,10.787-46.47c5.755-14,13.056-27.288,19.45-41s11.8-27.762,13.716-42.736c2.228-17.264,0-34.734-2.537-51.853-.33-2.063-.681-4.331-1.011-6.5-.206-1.341-2.62-1.918-2.95-.351-1.423,6.992-5.548,12.974-9.632,18.666a77.748,77.748,0,0,0-10.766,18.46c-5.033,13.8-4.125,29.02-.309,42.984a114.956,114.956,0,0,0,9.529,23.493c.742,1.382,3.609,1.093,2.7-.619a98.488,98.488,0,0,1-12.375-42.056,59.527,59.527,0,0,1,2.867-21.286,70.794,70.794,0,0,1,10.313-18.439c4.538-6.311,9.116-12.747,10.684-20.523l-2.929-.351c2.7,17.222,5.445,34.692,4.125,52.183-1.2,15.49-6.188,30.134-12.561,44.221-6.188,13.778-13.551,27.061-19.553,40.963A148.88,148.88,0,0,0,692.2,575.5a140.671,140.671,0,0,0,3.775,48.223c.495,1.959,1.052,3.939,1.65,5.878a1.815,1.815,0,0,0,1.691,1.32c.639,0,1.464-.536,1.237-1.279Z" transform="translate(1612.708 792.983)" fill="#fff"/>
    <path id="Path_45" data-name="Path 45" d="M746.564,597.832a131.794,131.794,0,0,0-14.252-39.56c-6.7-12.705-14.624-24.751-22.131-36.941a239.758,239.758,0,0,1-20.626-40.2,185.628,185.628,0,0,1-7.136-23.245c-1.733-7.3-3.156-14.706-5.548-21.843a55.421,55.421,0,0,0-10.581-19.037,97.806,97.806,0,0,0-16.5-14.438c-1.464-1.072-2.929-2.063-4.414-3.156-.866-.619-2.455-.5-2.331.866q1.217,12.685,2.392,25.328c.722,7.528,1.093,15.284,3.321,22.544a43.046,43.046,0,0,0,11.427,17.841c4.909,4.888,10.127,9.508,15.222,14.232,5.9,5.466,11.818,10.952,17.965,16.15,1.382,1.155,3.3-.5,1.774-1.794-10.581-8.91-20.626-18.563-30.732-27.968a44.758,44.758,0,0,1-12.272-17.037c-2.475-6.992-2.887-14.582-3.568-21.9l-2.6-27.35-2.351.866a139.749,139.749,0,0,1,16.954,13.386,51.4,51.4,0,0,1,12.169,18.089,139.7,139.7,0,0,1,5.919,21.43,213.669,213.669,0,0,0,6.374,22.688,220.182,220.182,0,0,0,19.8,40.8c7.3,12.149,15.16,23.946,22.09,36.322a143.611,143.611,0,0,1,15.737,38.756c.371,1.712.7,3.424.99,5.156s3.218,1.836,2.929,0Z" transform="translate(1561.133 801.031)" fill="#fff"/>
    <path id="Path_46" data-name="Path 46" d="M643.07,400.267c.908,5.858,4.27,11.262,7.363,16.212a146.567,146.567,0,0,1,9.529,15.7c3.156,6.827,4.93,14.17,7.879,21.079a170.333,170.333,0,0,0,9.405,18.439,189.314,189.314,0,0,0,12.829,19.429c1.01,1.32,3.506.351,2.31-1.237a181.358,181.358,0,0,1-21.038-35.352c-2.908-6.476-4.765-13.324-7.4-19.924a98.337,98.337,0,0,0-9.323-16.315c-3.486-5.4-7.631-11.385-8.621-17.883-.247-1.526-3.218-1.836-2.929,0Z" transform="translate(1561.147 801.127)" fill="#fff"/>
    <path id="Path_47" data-name="Path 47" d="M717.594,395.126a51.977,51.977,0,0,1-2.289,18.563c-1.671,6.188-3.713,12.231-5.218,18.563a176.366,176.366,0,0,0-4.022,59.175c.144,1.547,3.094,1.856,2.908,0a174.5,174.5,0,0,1,3.733-57.112c1.444-6.188,3.424-12.375,5.156-18.46a56.067,56.067,0,0,0,2.66-20.626c-.144-1.547-3.114-1.856-2.929,0Z" transform="translate(1627.146 795.604)" fill="#fff"/>
    <path id="Path_48" data-name="Path 48" d="M735.693,526.931c-6.724-8.683-12.128-18.233-18.151-27.37A171.565,171.565,0,0,0,703.1,480.5c-11.2-12.809-24.111-24.751-39.189-33.145a57.094,57.094,0,0,0-24.751-7.817c-.639,0-1.444.536-1.238,1.279A29.636,29.636,0,0,0,645.1,452.06a104.654,104.654,0,0,1,9.158,10.643c3.217,4.558,6.043,9.364,9.219,13.943a104.616,104.616,0,0,0,9.364,11.55,145.263,145.263,0,0,0,22.688,19.491,278.227,278.227,0,0,0,27.8,16.645,53.1,53.1,0,0,1,7.239,4.29,55.843,55.843,0,0,1,5.8,5.239,82.486,82.486,0,0,0,11.179,10.457,1.65,1.65,0,0,0,2.063,0,1.279,1.279,0,0,0-.309-1.836c-7.363-5.115-12.21-13.139-19.986-17.717-4.62-2.743-9.467-5.115-14.17-7.735s-9.405-5.445-13.922-8.477a152.627,152.627,0,0,1-23.1-18.563,112.868,112.868,0,0,1-9.653-10.932c-3.217-4.125-6-8.7-8.89-13.139a87.781,87.781,0,0,0-10.189-13.056c-3.4-3.568-7.116-7.281-8.6-12.128l-1.217,1.279a51.213,51.213,0,0,1,21.224,6.456,112.991,112.991,0,0,1,20.625,14.211A177.566,177.566,0,0,1,713.52,498.24c6.724,9.9,12.52,20.461,19.842,29.948,1.031,1.32,3.547.351,2.331-1.238Z" transform="translate(1555.668 844.046)" fill="#fff"/>
    <path id="Path_49" data-name="Path 49" d="M638.554,441.668q12.128,8.518,23.843,17.614c3.816,2.97,7.652,5.961,11.262,9.178a108.02,108.02,0,0,1,11.035,12.148c5.445,6.683,11.406,12.85,17.346,19.079,6.724,6.992,13.489,13.943,20.378,20.77,8.25,8.147,16.5,16.15,25.2,23.8,1.361,1.2,3.259-.454,1.774-1.774-15.119-13.345-29.33-27.7-43.314-42.221-5.8-6.023-11.736-11.984-17.078-18.439a155.037,155.037,0,0,0-10.787-12.375,125.807,125.807,0,0,0-11.138-9.55c-8.7-6.93-17.676-13.551-26.813-19.945a1.65,1.65,0,0,0-2.062,0,1.237,1.237,0,0,0,.309,1.836Z" transform="translate(1555.701 844.104)" fill="#fff"/>
    <path id="Path_50" data-name="Path 50" d="M678.806,514.206a147.305,147.305,0,0,0,17.759-42.2,172.676,172.676,0,0,0,4.888-40.694,66,66,0,0,0-3.733-21.9c-.289-.8-1.939-1.444-2.537-.619-4.125,5.631-5.9,12.478-7.549,19.182-.846,3.4-1.629,6.827-2.743,10.168-1.237,3.692-2.619,7.3-3.692,11.055a152.633,152.633,0,0,0-4.455,21.946c-.949,6.806-1.712,13.634-2.063,20.5a77.1,77.1,0,0,0,1.279,21.884c.371,1.506,3.362,1.794,2.929,0a70.133,70.133,0,0,1-1.361-18.811c.227-6.848.928-13.675,1.836-20.461a169.356,169.356,0,0,1,3.775-20.77c1.856-7.157,4.723-13.963,6.518-21.141s3.3-15.449,7.9-21.719l-2.537-.639c4.682,12.6,3.981,26.813,2.31,39.849a155.763,155.763,0,0,1-9.839,40.344,182.23,182.23,0,0,1-11.447,22.688c-.8,1.382,1.939,2.723,2.764,1.32Z" transform="translate(1594.466 810.961)" fill="#fff"/>
    <path id="Path_51" data-name="Path 51" d="M757.224,432.742a39.6,39.6,0,0,1-14.128-1.815,97.914,97.914,0,0,1-15.222-5.878,250.63,250.63,0,0,1-29.226-17.057c-6.188-4.125-12.375-8.415-18.192-13.118l-.639,2.166c1.32,0,2.6,0,3.919-.1a19.839,19.839,0,0,1,4.661.536c3.135.619,6.188,1.32,9.364,2.063a94.634,94.634,0,0,1,17.078,6.188,142.013,142.013,0,0,1,15.531,7.817,88.677,88.677,0,0,1,12.54,9.673c4.5,4,8.869,8.147,13.675,11.777,1.423,1.093,3.362-.557,1.774-1.774-8.725-6.6-16.067-14.933-25.308-20.873a130.72,130.72,0,0,0-15.82-8.25,104.2,104.2,0,0,0-17.3-6.518c-3.547-.928-7.136-1.712-10.746-2.434a27.949,27.949,0,0,0-4.888-.722c-1.65,0-3.3.186-4.95.1-1.32,0-1.547,1.444-.639,2.186a304.084,304.084,0,0,0,33.888,22.915,130.288,130.288,0,0,0,28.36,13.3,44.222,44.222,0,0,0,16.769,2.454c2.062-.186,1.2-2.723-.5-2.578Z" transform="translate(1598.448 796.103)" fill="#fff"/>
    <path id="Path_52" data-name="Path 52" d="M680.135,397.26a52.241,52.241,0,0,0,14.933,5.9,48.981,48.981,0,0,1,7.528,2.723,54.755,54.755,0,0,1,7.611,4.579c4.579,3.2,9.055,6.435,13.9,9.2s10,5.363,15.119,7.838,10.684,5.033,15.985,7.652a1.238,1.238,0,1,0,1.073-2.207c-9.653-4.765-19.512-9.075-28.876-14.252a142.816,142.816,0,0,1-13.922-8.972,56.271,56.271,0,0,0-14.748-8.023c-5.61-1.877-11.777-2.846-16.768-6.188a1.65,1.65,0,0,0-2.063,0,1.238,1.238,0,0,0,.31,1.815Z" transform="translate(1600.027 796.873)" fill="#fff"/>
    <path id="Path_53" data-name="Path 53" d="M694.108,409.349a299.328,299.328,0,0,1-5.693,36.012c-2.619,13.242-5.28,26.442-7.755,39.725-1.753,9.385-3.506,18.769-5.486,28.092-.33,1.526,2.578,2.393,2.949.7,3.4-15.964,6.188-32.052,9.261-48.078,2.413-12.169,5.012-24.3,7.1-36.528,1.093-6.373,2.063-12.767,2.578-19.223C697.16,408.5,694.232,407.658,694.108,409.349Z" transform="translate(1595.253 810.978)" fill="#fff"/>
    <path id="Path_54" data-name="Path 54" d="M818.786,312.036c-15.384-7.463-28.846-18.207-41.037-30.1s-23.641-25.406-35.286-38.3c-12.138-13.514-24.7-26.552-39.114-37.738a231.292,231.292,0,0,0-24.7-16.8c-7.9-4.693-16.143-8.821-23.835-13.885a68.913,68.913,0,0,1-19.8-18.613,109.226,109.226,0,0,1-11.962-25.494c-.776-2.188-1.517-4.375-2.276-6.563l-1.606,1.217,28.6,11.485c8.38,3.37,17.166,6.4,24.841,11.256a41.937,41.937,0,0,1,9.862,8.469,63.923,63.923,0,0,1,7.234,10.992c4.058,7.516,7.674,15.279,11.468,22.936,4.323,8.821,8.645,17.484,12.562,26.464.547,1.235,2.982.97,2.329-.529-3.529-8.063-7.41-15.967-11.309-23.835s-7.6-15.632-11.591-23.341-8.927-15.49-16.232-20.783-15.878-8.521-24.118-11.856l-32.692-13.126c-.917-.37-1.976.106-1.605,1.2a165.68,165.68,0,0,0,10.727,26.323,66.758,66.758,0,0,0,17.89,20.942,189.971,189.971,0,0,0,23.447,14.467A252.305,252.305,0,0,1,695.5,202.7a275.08,275.08,0,0,1,41.161,37.826c11.785,12.915,23.024,26.341,35.286,38.814,12,12.156,25.07,23.412,40.084,31.757,1.905,1.041,3.828,2.029,5.769,2.982a1.059,1.059,0,1,0,.917-1.888Z" transform="translate(1535.005 508.52)" fill="#384c3d"/>
    <path id="Path_55" data-name="Path 55" d="M619.394,126.1a38.733,38.733,0,0,1,9.612,6.91,126.691,126.691,0,0,1,9.344,9.777c5.816,6.641,11.2,13.757,17.882,19.553,7.879,6.827,16.934,12.128,24.978,18.728a236.047,236.047,0,0,1,21.8,20.626,264.455,264.455,0,0,1,21.513,25.514c.99,1.361,3.506.392,2.31-1.238A286.81,286.81,0,0,0,685.582,181.6c-7.858-6.724-16.666-12.128-24.751-18.563-7.157-5.693-12.767-12.767-18.707-19.636A153.25,153.25,0,0,0,631.5,132.059a43.109,43.109,0,0,0-11.138-8.106c-1.732-.825-2.8,1.382-1.052,2.207Z" transform="translate(1534.971 508.522)" fill="#384c3d"/>
    <path id="Path_56" data-name="Path 56" d="M739.378,306.706c-6.559-14.232-15.1-27.411-22.688-41.086a251.017,251.017,0,0,1-14.582-30.938,267.844,267.844,0,0,1-10.994-34.465,176.7,176.7,0,0,1-5.342-36.3c-.351-12.149.908-24.751,6.188-35.827h-2.537c8.085,7.92,9.55,19.986,14.128,29.887,5.693,12.375,13.469,23.472,18.811,35.971a180.878,180.878,0,0,1,11.158,38.034,206.441,206.441,0,0,1,3.61,36.219c0,12.809-.825,25.6-.578,38.384,0,1.547,2.97,2.372,2.95.7-.227-11.571.495-23.142.578-34.692a211.238,211.238,0,0,0-2.991-36.054,192.836,192.836,0,0,0-10.313-38.549,156.062,156.062,0,0,0-8.787-18.707c-3.3-5.981-6.868-11.839-9.962-17.924a146.273,146.273,0,0,1-7.3-18.336,41.416,41.416,0,0,0-9.219-16.253c-.619-.6-2.063-1.114-2.537,0a76.991,76.991,0,0,0-6.229,32.114,164.136,164.136,0,0,0,4.27,36.425,259.316,259.316,0,0,0,23.946,65.4c8.25,15.655,18.274,30.423,25.72,46.552.66,1.444,3.506,1.134,2.7-.619Z" transform="translate(1603.299 511.009)" fill="#384c3d"/>
    <path id="Path_57" data-name="Path 57" d="M685.757,127.378q2.166,16.253,4.888,32.424a319.1,319.1,0,0,0,6.538,32.382c3.279,11.757,8.993,22.564,13.159,33.991s7.322,23.307,10.6,35.064a386.893,386.893,0,0,0,12.5,39.189c.6,1.485,3.424,1.176,2.7-.619-8.993-22.544-13.757-46.49-21.451-69.467-3.857-11.592-9.57-22.461-13.365-34.053a144.984,144.984,0,0,1-4-16.129q-1.629-8.085-3.052-16.212-3.176-18.171-5.59-36.487c-.206-1.526-3.176-1.836-2.929,0Z" transform="translate(1606.511 511.1)" fill="#384c3d"/>
    <path id="Path_58" data-name="Path 58" d="M759.158,201.441c-19.759,4.95-40.406,8.25-60.8,6.394-16.686-1.444-33.579-3.548-49.6-8.58A81.615,81.615,0,0,1,624,187.148l-.289,2.063c9.034-3.259,18.873-2.475,28.278-2.063a124.164,124.164,0,0,0,14.128,0c5.342-.351,10.7-.474,16.067-.33a220.058,220.058,0,0,1,27.494,3.053c8.25,1.3,16.624,2.846,24.751,4.888a93.411,93.411,0,0,1,24.751,9.1c1.67.969,2.722-1.258,1.072-2.207a91.145,91.145,0,0,0-22.131-8.5,258.385,258.385,0,0,0-25.308-5.342,255.371,255.371,0,0,0-27.123-3.259,144.714,144.714,0,0,0-16.109,0c-4.971.227-9.88.5-14.851.309-10.684-.412-22.008-1.733-32.279,2.063a1.176,1.176,0,0,0-.289,2.063c13.84,10.313,31.33,15.057,48.12,17.944,18.192,3.156,36.776,5.012,55.215,3.259A237.64,237.64,0,0,0,760.355,204c1.877-.474.33-2.888-1.2-2.516Z" transform="translate(1538.432 572.836)" fill="#384c3d"/>
    <path id="Path_59" data-name="Path 59" d="M625.052,188.534c16.851,3.692,34.094,4.765,51.234,6.043s34.692,3.259,52.018,5.012c9.818.99,19.636,1.939,29.495,2.7a1.135,1.135,0,0,0,1.217-1.279,1.753,1.753,0,0,0-1.691-1.3c-17.3-1.341-34.548-3.238-51.791-5.012-8.663-.887-17.3-1.774-25.968-2.434s-16.934-1.176-25.39-2.063a237.822,237.822,0,0,1-28.876-4.249c-1.959-.433-2.062,2.063-.309,2.475Z" transform="translate(1540.637 574.543)" fill="#384c3d"/>
    <path id="Path_60" data-name="Path 60" d="M793.816,217.677a155.433,155.433,0,0,0-34.424-2.929c-11.612,0-23.2.371-34.816.124a194.568,194.568,0,0,0-33.228,1.939,260.118,260.118,0,0,0-30.3,7.3c-9.529,2.64-19.7,5.672-27.1,12.6-.887.825.247,1.939,1.052,2.063a56.679,56.679,0,0,0,17.284,1.629,68.849,68.849,0,0,1,17.346,1.32c5.4,1.279,10.6,3.279,16.005,4.579a128.016,128.016,0,0,0,15.572,2.7,117.323,117.323,0,0,0,32.589-.268,112.534,112.534,0,0,0,30.093-10,168.264,168.264,0,0,0,30.938-19c1.341-1.011-1.155-2.826-2.372-1.856a164.444,164.444,0,0,1-26.813,16.789A121.153,121.153,0,0,1,736.064,245.6a106.822,106.822,0,0,1-31.8,1.2,140.389,140.389,0,0,1-15.8-2.393c-5.28-1.114-10.313-2.908-15.552-4.373a64.351,64.351,0,0,0-18.274-2.248c-6.5,0-13.077.392-19.388-1.485l1.052,2.166c6.477-6.064,15.3-8.931,23.658-11.323a283.244,283.244,0,0,1,28.876-7.3,179.447,179.447,0,0,1,32.547-2.454c5.651,0,11.3.268,16.954.227s11.385-.186,17.078-.268c12.747-.165,25.6,0,38.116,2.784,1.939.433,2.063-2.063.289-2.475Z" transform="translate(1551.13 605.133)" fill="#384c3d"/>
    <path id="Path_61" data-name="Path 61" d="M636.829,237.05c1.3-2.063,5.053-2.888,7.4-3.486a91.327,91.327,0,0,1,12.932-2.063c8.436-.866,16.892-1.052,25.369-1.423,14-.619,27.989-1.279,42.014-1.506,10.684-.165,21.368-.681,32.011-1.794,12.767-1.341,25.761-3.383,37.724-8.25.722-.289.619-1.258.227-1.753a1.794,1.794,0,0,0-2.063-.516,130.54,130.54,0,0,1-33.537,7.57,324.255,324.255,0,0,1-33.187,2.063c-6.188.124-12.375.165-18.439.371-7.652.289-15.3.7-22.936,1.052-8.869.392-17.738.578-26.566,1.423a98.1,98.1,0,0,0-14.727,2.289c-3.115.763-7.116,1.794-8.972,4.661-.866,1.32,1.9,2.681,2.764,1.32Z" transform="translate(1551.445 606.653)" fill="#384c3d"/>
  </g>
</svg>
